<svg xmlns="http://www.w3.org/2000/svg" xmlns:xlink="http://www.w3.org/1999/xlink" width="500" zoomAndPan="magnify" viewBox="0 0 375 374.999991" height="500" preserveAspectRatio="xMidYMid meet" version="1.0"><defs><g/><clipPath id="f1ed10942c"><path d="M 139 150 L 236 150 L 236 230.144531 L 139 230.144531 Z M 139 150 " clip-rule="nonzero"/></clipPath><clipPath id="0ce2ff18e8"><path d="M 176 97.394531 L 199 97.394531 L 199 145 L 176 145 Z M 176 97.394531 " clip-rule="nonzero"/></clipPath><clipPath id="092a3fc2aa"><path d="M 218 138 L 258.246094 138 L 258.246094 168 L 218 168 Z M 218 138 " clip-rule="nonzero"/></clipPath><clipPath id="2a9bbfb486"><path d="M 116.496094 138 L 157 138 L 157 168 L 116.496094 168 Z M 116.496094 138 " clip-rule="nonzero"/></clipPath></defs><g fill="#0e4f55" fill-opacity="1"><g transform="translate(103.963687, 259.697621)"><g><path d="M 7.625 -14.453125 L 7.53125 -11.0625 L 9.53125 -11.0625 L 12.9375 -11.140625 L 13.25 -10.734375 L 12.90625 -6.453125 L 9.125 -6.546875 L 7.421875 -6.546875 L 7.421875 -6.15625 L 7.65625 0 L 1.765625 0 L 2.046875 -5.578125 L 1.765625 -18.96875 L 14.421875 -18.96875 L 14.75 -18.5625 L 14.375 -14.28125 L 9.671875 -14.453125 Z M 7.625 -14.453125 "/></g></g></g><g fill="#0e4f55" fill-opacity="1"><g transform="translate(122.47234, 259.697621)"><g><path d="M 18.09375 0 L 12.140625 0 L 11.609375 -3.140625 L 11.578125 -3.21875 L 8.703125 -3.28125 L 6.3125 -3.171875 L 5.8125 0 L 0.0625 0 L 5.8125 -18.96875 L 12.90625 -18.96875 Z M 10.703125 -7.515625 L 9.421875 -13.71875 L 9.0625 -13.71875 L 7.421875 -7.515625 L 9.0625 -7.484375 Z M 10.703125 -7.515625 "/></g></g></g><g fill="#0e4f55" fill-opacity="1"><g transform="translate(145.263475, 259.697621)"><g><path d="M 14.25 -7.484375 C 15.65625 -5.285156 17.066406 -3.25 18.484375 -1.375 L 18.390625 -0.734375 C 16.390625 -0.128906 14.425781 0.234375 12.5 0.359375 L 11.9375 -0.125 L 11.578125 -0.84375 C 11.421875 -1.15625 11.109375 -1.816406 10.640625 -2.828125 C 10.171875 -3.835938 9.765625 -4.78125 9.421875 -5.65625 L 7.453125 -5.65625 L 7.65625 0 L 1.765625 0 L 2.046875 -5.578125 L 1.765625 -18.96875 L 10.765625 -19 C 12.890625 -19 14.53125 -18.492188 15.6875 -17.484375 C 16.84375 -16.484375 17.421875 -15.035156 17.421875 -13.140625 C 17.421875 -12.023438 17.140625 -10.976562 16.578125 -10 C 16.023438 -9.019531 15.25 -8.179688 14.25 -7.484375 Z M 11.234375 -12.546875 C 11.234375 -13.328125 11.03125 -13.910156 10.625 -14.296875 C 10.226562 -14.679688 9.582031 -14.890625 8.6875 -14.921875 L 7.625 -14.84375 L 7.515625 -9.9375 L 9.65625 -9.828125 C 10.195312 -10.078125 10.59375 -10.414062 10.84375 -10.84375 C 11.101562 -11.28125 11.234375 -11.847656 11.234375 -12.546875 Z M 11.234375 -12.546875 "/></g></g></g><g fill="#0e4f55" fill-opacity="1"><g transform="translate(168.171933, 259.697621)"><g><path d="M 22.703125 0 L 17.53125 0 L 17.390625 -5.75 L 17.0625 -10.53125 L 16.71875 -10.53125 L 13.671875 -1.78125 L 9.234375 -1.78125 L 6.71875 -10.53125 L 6.359375 -10.53125 L 5.953125 -6.3125 L 5.65625 0 L 0.765625 0 L 2.609375 -18.96875 L 9.390625 -18.96875 L 9.9375 -16.28125 L 11.609375 -9.390625 L 11.96875 -9.390625 L 13.8125 -16.078125 L 14.484375 -18.96875 L 21.171875 -18.96875 Z M 22.703125 0 "/></g></g></g><g fill="#0e4f55" fill-opacity="1"><g transform="translate(196.213515, 259.697621)"><g><path d="M 8.9375 -19.328125 C 10.800781 -19.328125 12.640625 -18.984375 14.453125 -18.296875 L 13.515625 -13.515625 L 12.703125 -13.171875 C 11.878906 -13.679688 11.066406 -14.082031 10.265625 -14.375 C 9.460938 -14.664062 8.816406 -14.8125 8.328125 -14.8125 C 7.878906 -14.8125 7.519531 -14.722656 7.25 -14.546875 C 6.988281 -14.367188 6.859375 -14.132812 6.859375 -13.84375 C 6.859375 -13.46875 7.054688 -13.148438 7.453125 -12.890625 C 7.859375 -12.628906 8.53125 -12.28125 9.46875 -11.84375 C 10.5625 -11.351562 11.460938 -10.898438 12.171875 -10.484375 C 12.878906 -10.066406 13.492188 -9.488281 14.015625 -8.75 C 14.546875 -8.019531 14.8125 -7.117188 14.8125 -6.046875 C 14.8125 -4.847656 14.484375 -3.765625 13.828125 -2.796875 C 13.171875 -1.828125 12.234375 -1.054688 11.015625 -0.484375 C 9.804688 0.078125 8.398438 0.359375 6.796875 0.359375 C 4.804688 0.359375 2.71875 -0.015625 0.53125 -0.765625 L 1.375 -5.859375 L 1.96875 -6.21875 C 2.863281 -5.53125 3.820312 -4.984375 4.84375 -4.578125 C 5.875 -4.179688 6.734375 -3.984375 7.421875 -3.984375 C 7.960938 -3.984375 8.351562 -4.078125 8.59375 -4.265625 C 8.84375 -4.453125 8.96875 -4.679688 8.96875 -4.953125 C 8.96875 -5.367188 8.757812 -5.71875 8.34375 -6 C 7.925781 -6.28125 7.25 -6.625 6.3125 -7.03125 C 5.226562 -7.507812 4.335938 -7.957031 3.640625 -8.375 C 2.953125 -8.789062 2.351562 -9.363281 1.84375 -10.09375 C 1.332031 -10.832031 1.078125 -11.738281 1.078125 -12.8125 C 1.078125 -14.039062 1.410156 -15.148438 2.078125 -16.140625 C 2.742188 -17.128906 3.671875 -17.90625 4.859375 -18.46875 C 6.054688 -19.039062 7.414062 -19.328125 8.9375 -19.328125 Z M 8.9375 -19.328125 "/></g></g></g><g fill="#0e4f55" fill-opacity="1"><g transform="translate(216.100765, 259.697621)"><g><path d="M 10 -19.328125 C 12.757812 -19.328125 14.890625 -18.507812 16.390625 -16.875 C 17.898438 -15.238281 18.65625 -12.9375 18.65625 -9.96875 C 18.65625 -6.6875 17.828125 -4.144531 16.171875 -2.34375 C 14.523438 -0.539062 12.1875 0.359375 9.15625 0.359375 C 6.394531 0.359375 4.257812 -0.46875 2.75 -2.125 C 1.25 -3.78125 0.5 -6.125 0.5 -9.15625 C 0.5 -12.394531 1.320312 -14.898438 2.96875 -16.671875 C 4.625 -18.441406 6.96875 -19.328125 10 -19.328125 Z M 9.46875 -14.640625 C 8.707031 -14.640625 8.128906 -14.503906 7.734375 -14.234375 C 7.347656 -13.972656 7.070312 -13.507812 6.90625 -12.84375 C 6.738281 -12.175781 6.65625 -11.207031 6.65625 -9.9375 C 6.65625 -8.320312 6.742188 -7.09375 6.921875 -6.25 C 7.097656 -5.40625 7.394531 -4.816406 7.8125 -4.484375 C 8.238281 -4.148438 8.859375 -3.984375 9.671875 -3.984375 C 10.441406 -3.984375 11.019531 -4.113281 11.40625 -4.375 C 11.800781 -4.644531 12.082031 -5.113281 12.25 -5.78125 C 12.414062 -6.457031 12.5 -7.429688 12.5 -8.703125 C 12.5 -10.304688 12.410156 -11.53125 12.234375 -12.375 C 12.054688 -13.21875 11.753906 -13.804688 11.328125 -14.140625 C 10.910156 -14.472656 10.289062 -14.640625 9.46875 -14.640625 Z M 9.46875 -14.640625 "/></g></g></g><g fill="#0e4f55" fill-opacity="1"><g transform="translate(239.654536, 259.697621)"><g><path d="M 10.765625 -19 C 12.890625 -19 14.523438 -18.472656 15.671875 -17.421875 C 16.816406 -16.378906 17.390625 -14.894531 17.390625 -12.96875 C 17.390625 -11.457031 17.035156 -10.128906 16.328125 -8.984375 C 15.628906 -7.835938 14.632812 -6.945312 13.34375 -6.3125 C 12.050781 -5.675781 10.566406 -5.359375 8.890625 -5.359375 L 7.453125 -5.359375 L 7.65625 0 L 1.765625 0 L 2.046875 -5.578125 L 1.765625 -18.96875 Z M 9.703125 -9.46875 C 10.234375 -9.757812 10.617188 -10.132812 10.859375 -10.59375 C 11.109375 -11.0625 11.234375 -11.65625 11.234375 -12.375 C 11.234375 -13.238281 11.023438 -13.867188 10.609375 -14.265625 C 10.203125 -14.671875 9.5625 -14.890625 8.6875 -14.921875 L 7.625 -14.84375 L 7.515625 -9.59375 Z M 9.703125 -9.46875 "/></g></g></g><g fill="#0e4f55" fill-opacity="1"><g transform="translate(261.448376, 259.697621)"><g><path d="M 7.421875 -6.15625 L 7.65625 0 L 1.765625 0 L 2.046875 -5.578125 L 1.765625 -18.96875 L 7.75 -18.96875 Z M 7.421875 -6.15625 "/></g></g></g><g fill="#0e4f55" fill-opacity="1"><g transform="translate(134.271324, 273.533653)"><g><path d="M 4.96875 0 L 2.125 0 L 0.046875 -7.59375 L 2.421875 -7.59375 L 2.640625 -6.34375 L 3.515625 -2.09375 L 3.65625 -2.09375 L 4.734375 -6.203125 L 4.96875 -7.59375 L 7.265625 -7.59375 Z M 4.96875 0 "/></g></g></g><g fill="#0e4f55" fill-opacity="1"><g transform="translate(149.47011, 273.533653)"><g><path d="M 2.96875 -2.46875 L 3.0625 0 L 0.703125 0 L 0.828125 -2.234375 L 0.703125 -7.59375 L 3.09375 -7.59375 Z M 2.96875 -2.46875 "/></g></g></g><g fill="#0e4f55" fill-opacity="1"><g transform="translate(161.293896, 273.533653)"><g><path d="M 4.96875 0 L 2.125 0 L 0.046875 -7.59375 L 2.421875 -7.59375 L 2.640625 -6.34375 L 3.515625 -2.09375 L 3.65625 -2.09375 L 4.734375 -6.203125 L 4.96875 -7.59375 L 7.265625 -7.59375 Z M 4.96875 0 "/></g></g></g><g fill="#0e4f55" fill-opacity="1"><g transform="translate(176.492682, 273.533653)"><g><path d="M 7.046875 -3.75 L 7.03125 -2.53125 C 7.019531 -1.675781 6.726562 -1.015625 6.15625 -0.546875 C 5.582031 -0.0859375 4.765625 0.140625 3.703125 0.140625 C 2.679688 0.140625 1.898438 -0.0859375 1.359375 -0.546875 C 0.816406 -1.015625 0.554688 -1.675781 0.578125 -2.53125 L 0.609375 -3.75 L 0.546875 -7.59375 L 2.890625 -7.59375 L 2.796875 -2.84375 C 2.785156 -2.445312 2.859375 -2.160156 3.015625 -1.984375 C 3.179688 -1.804688 3.441406 -1.71875 3.796875 -1.71875 C 4.171875 -1.71875 4.4375 -1.804688 4.59375 -1.984375 C 4.757812 -2.160156 4.835938 -2.445312 4.828125 -2.84375 L 4.734375 -7.59375 L 7.125 -7.59375 Z M 7.046875 -3.75 "/></g></g></g><g fill="#0e4f55" fill-opacity="1"><g transform="translate(192.13678, 273.533653)"><g><path d="M 3.578125 -7.734375 C 4.316406 -7.734375 5.050781 -7.597656 5.78125 -7.328125 L 5.40625 -5.40625 L 5.078125 -5.265625 C 4.753906 -5.472656 4.429688 -5.632812 4.109375 -5.75 C 3.785156 -5.863281 3.523438 -5.921875 3.328125 -5.921875 C 3.148438 -5.921875 3.007812 -5.882812 2.90625 -5.8125 C 2.800781 -5.75 2.75 -5.65625 2.75 -5.53125 C 2.75 -5.382812 2.828125 -5.257812 2.984375 -5.15625 C 3.148438 -5.050781 3.421875 -4.910156 3.796875 -4.734375 C 4.234375 -4.546875 4.59375 -4.363281 4.875 -4.1875 C 5.15625 -4.019531 5.398438 -3.789062 5.609375 -3.5 C 5.816406 -3.207031 5.921875 -2.847656 5.921875 -2.421875 C 5.921875 -1.941406 5.789062 -1.507812 5.53125 -1.125 C 5.269531 -0.738281 4.894531 -0.429688 4.40625 -0.203125 C 3.925781 0.0234375 3.363281 0.140625 2.71875 0.140625 C 1.925781 0.140625 1.09375 -0.0078125 0.21875 -0.3125 L 0.546875 -2.34375 L 0.78125 -2.484375 C 1.144531 -2.210938 1.53125 -1.992188 1.9375 -1.828125 C 2.351562 -1.671875 2.695312 -1.59375 2.96875 -1.59375 C 3.1875 -1.59375 3.34375 -1.628906 3.4375 -1.703125 C 3.539062 -1.773438 3.59375 -1.867188 3.59375 -1.984375 C 3.59375 -2.148438 3.507812 -2.285156 3.34375 -2.390625 C 3.175781 -2.503906 2.898438 -2.644531 2.515625 -2.8125 C 2.085938 -3 1.734375 -3.175781 1.453125 -3.34375 C 1.179688 -3.519531 0.941406 -3.753906 0.734375 -4.046875 C 0.535156 -4.335938 0.4375 -4.695312 0.4375 -5.125 C 0.4375 -5.625 0.566406 -6.066406 0.828125 -6.453125 C 1.097656 -6.847656 1.46875 -7.160156 1.9375 -7.390625 C 2.414062 -7.617188 2.960938 -7.734375 3.578125 -7.734375 Z M 3.578125 -7.734375 "/></g></g></g><g fill="#0e4f55" fill-opacity="1"><g transform="translate(206.316031, 273.533653)"><g><path d="M 4 -7.734375 C 5.101562 -7.734375 5.957031 -7.40625 6.5625 -6.75 C 7.164062 -6.09375 7.46875 -5.171875 7.46875 -3.984375 C 7.46875 -2.671875 7.132812 -1.65625 6.46875 -0.9375 C 5.8125 -0.21875 4.875 0.140625 3.65625 0.140625 C 2.550781 0.140625 1.695312 -0.1875 1.09375 -0.84375 C 0.5 -1.507812 0.203125 -2.445312 0.203125 -3.65625 C 0.203125 -4.957031 0.53125 -5.960938 1.1875 -6.671875 C 1.851562 -7.378906 2.789062 -7.734375 4 -7.734375 Z M 3.796875 -5.859375 C 3.484375 -5.859375 3.25 -5.800781 3.09375 -5.6875 C 2.9375 -5.582031 2.820312 -5.394531 2.75 -5.125 C 2.6875 -4.863281 2.65625 -4.484375 2.65625 -3.984375 C 2.65625 -3.328125 2.691406 -2.832031 2.765625 -2.5 C 2.835938 -2.164062 2.957031 -1.929688 3.125 -1.796875 C 3.289062 -1.660156 3.539062 -1.59375 3.875 -1.59375 C 4.175781 -1.59375 4.40625 -1.644531 4.5625 -1.75 C 4.71875 -1.851562 4.828125 -2.039062 4.890625 -2.3125 C 4.960938 -2.582031 5 -2.972656 5 -3.484375 C 5 -4.128906 4.960938 -4.617188 4.890625 -4.953125 C 4.816406 -5.285156 4.695312 -5.519531 4.53125 -5.65625 C 4.363281 -5.789062 4.117188 -5.859375 3.796875 -5.859375 Z M 3.796875 -5.859375 "/></g></g></g><g fill="#0e4f55" fill-opacity="1"><g transform="translate(221.960127, 273.533653)"><g><path d="M 4.3125 -7.609375 C 5.15625 -7.609375 5.804688 -7.394531 6.265625 -6.96875 C 6.722656 -6.550781 6.953125 -5.957031 6.953125 -5.1875 C 6.953125 -4.582031 6.8125 -4.050781 6.53125 -3.59375 C 6.25 -3.132812 5.847656 -2.773438 5.328125 -2.515625 C 4.816406 -2.265625 4.226562 -2.140625 3.5625 -2.140625 L 2.984375 -2.140625 L 3.0625 0 L 0.703125 0 L 0.828125 -2.234375 L 0.703125 -7.59375 Z M 3.890625 -3.796875 C 4.097656 -3.910156 4.25 -4.054688 4.34375 -4.234375 C 4.445312 -4.421875 4.5 -4.660156 4.5 -4.953125 C 4.5 -5.296875 4.414062 -5.546875 4.25 -5.703125 C 4.082031 -5.867188 3.820312 -5.957031 3.46875 -5.96875 L 3.046875 -5.9375 L 3 -3.84375 Z M 3.890625 -3.796875 "/></g></g></g><g fill="#0e4f55" fill-opacity="1"><g transform="translate(236.901097, 273.533653)"><g><path d="M 2.96875 -2.46875 L 3.0625 0 L 0.703125 0 L 0.828125 -2.234375 L 0.703125 -7.59375 L 3.09375 -7.59375 Z M 2.96875 -2.46875 "/></g></g></g><path fill="#34b982" d="M 227.132812 202.410156 C 227.132812 202.410156 202.300781 203.992188 192.859375 228.105469 C 192.859375 228.109375 220.722656 223.039062 227.132812 202.410156 Z M 227.132812 202.410156 " fill-opacity="1" fill-rule="nonzero"/><path fill="#34b982" d="M 230.082031 197.453125 C 230.082031 197.453125 185.332031 179.191406 169.378906 224.84375 C 169.378906 224.84375 175.894531 227.4375 182.75 228.113281 C 182.75 228.113281 196.570312 196.875 229.601562 199.925781 Z M 230.082031 197.453125 " fill-opacity="1" fill-rule="nonzero"/><path fill="#34b982" d="M 231.304688 191.695312 C 231.304688 191.695312 192.71875 162.453125 147.089844 202.695312 C 147.089844 202.695312 151.492188 214.167969 160.582031 218.417969 C 160.582031 218.417969 171.175781 189 198.703125 186.292969 C 216.355469 184.457031 231.304688 194.070312 231.304688 194.070312 Z M 231.304688 191.695312 " fill-opacity="1" fill-rule="nonzero"/><path fill="#34b982" d="M 207.070312 140.683594 C 207.070312 140.683594 211.429688 129.484375 222.214844 126.019531 C 222.214844 126.019531 223.984375 139.039062 209.238281 146.5625 L 205.949219 144.375 C 205.949219 144.375 206.886719 141.753906 207.070312 140.683594 Z M 207.070312 140.683594 " fill-opacity="1" fill-rule="nonzero"/><path fill="#34b982" d="M 225.144531 156.269531 C 225.144531 156.269531 237.640625 143.011719 255.585938 144.785156 C 255.585938 144.785156 249 164.566406 224.652344 165.582031 C 224.652344 165.582031 222.429688 161.246094 225.144531 156.269531 Z M 225.144531 156.269531 " fill-opacity="1" fill-rule="nonzero"/><path fill="#34b982" d="M 187.367188 105.984375 C 179.828125 114.523438 183.066406 134.125 183.066406 134.125 C 184.28125 139.691406 187.367188 140.222656 187.367188 140.222656 C 187.367188 140.222656 190.457031 139.691406 191.671875 134.125 C 191.671875 134.125 194.910156 114.523438 187.367188 105.984375 Z M 187.367188 105.984375 " fill-opacity="1" fill-rule="nonzero"/><path fill="#34b982" d="M 167.667969 140.683594 C 167.667969 140.683594 163.308594 129.484375 152.523438 126.019531 C 152.523438 126.019531 150.753906 139.039062 165.5 146.5625 L 168.789062 144.375 C 168.789062 144.375 167.851562 141.753906 167.667969 140.683594 Z M 167.667969 140.683594 " fill-opacity="1" fill-rule="nonzero"/><path fill="#34b982" d="M 149.59375 156.269531 C 149.59375 156.269531 137.101562 143.011719 119.152344 144.785156 C 119.152344 144.785156 125.738281 164.566406 150.085938 165.582031 C 150.085938 165.582031 152.308594 161.246094 149.59375 156.269531 Z M 149.59375 156.269531 " fill-opacity="1" fill-rule="nonzero"/><path fill="#edb46a" d="M 225.671875 162.625 C 225.667969 165.695312 225.308594 168.722656 224.585938 171.707031 C 223.863281 174.691406 222.800781 177.546875 221.398438 180.277344 C 221.140625 180.777344 220.871094 181.273438 220.589844 181.757812 C 215.796875 179.863281 210.441406 178.371094 204.6875 177.363281 L 202.621094 158.339844 L 187.367188 151.914062 L 171.285156 158.789062 L 169.800781 177.402344 C 164.140625 178.410156 158.875 179.890625 154.148438 181.757812 C 153.867188 181.273438 153.597656 180.777344 153.339844 180.277344 C 151.9375 177.546875 150.875 174.691406 150.152344 171.707031 C 149.429688 168.722656 149.066406 165.695312 149.066406 162.625 C 149.066406 160.59375 149.226562 158.570312 149.539062 156.5625 C 149.640625 156.601562 149.734375 156.640625 149.824219 156.671875 C 149.746094 156.539062 149.675781 156.40625 149.585938 156.273438 C 149.84375 154.714844 150.195312 153.179688 150.648438 151.667969 C 151.714844 148.050781 153.285156 144.671875 155.355469 141.527344 C 156.007812 140.53125 156.703125 139.566406 157.445312 138.640625 C 158.9375 140.6875 160.75 142.398438 162.878906 143.765625 C 162.152344 141.753906 161.0625 138.785156 159.917969 135.832031 C 160.398438 135.332031 160.894531 134.847656 161.40625 134.382812 C 163.703125 136.757812 166.078125 139.117188 167.667969 140.683594 C 167.246094 137.742188 166.238281 135.019531 164.632812 132.519531 C 164.515625 132.339844 164.394531 132.15625 164.269531 131.976562 C 165.175781 131.289062 166.113281 130.636719 167.078125 130.035156 C 170.144531 128.105469 173.421875 126.648438 176.902344 125.65625 C 177.996094 125.347656 179.109375 125.082031 180.242188 124.875 C 180.671875 128.117188 181.613281 131.199219 183.066406 134.128906 C 183.59375 131.824219 184.40625 128.183594 185.234375 124.265625 C 185.9375 124.222656 186.652344 124.203125 187.367188 124.203125 C 188.085938 124.203125 188.796875 124.222656 189.507812 124.265625 C 190.335938 128.1875 191.144531 131.820312 191.671875 134.125 C 193.121094 131.195312 194.0625 128.109375 194.492188 124.863281 C 195.625 125.074219 196.734375 125.339844 197.832031 125.648438 C 201.3125 126.640625 204.585938 128.097656 207.652344 130.027344 C 208.625 130.632812 209.5625 131.28125 210.464844 131.972656 C 210.339844 132.148438 210.21875 132.328125 210.101562 132.511719 C 208.5 135.011719 207.488281 137.734375 207.070312 140.675781 C 208.667969 139.109375 211.035156 136.746094 213.332031 134.371094 C 213.84375 134.839844 214.339844 135.328125 214.820312 135.828125 C 213.679688 138.777344 212.585938 141.75 211.863281 143.761719 C 213.988281 142.390625 215.800781 140.683594 217.292969 138.640625 C 218.03125 139.566406 218.734375 140.535156 219.382812 141.53125 C 221.453125 144.675781 223.019531 148.054688 224.089844 151.667969 C 224.539062 153.179688 224.890625 154.714844 225.148438 156.269531 C 225.066406 156.40625 224.988281 156.539062 224.90625 156.671875 C 225 156.636719 225.09375 156.597656 225.191406 156.5625 C 225.511719 158.570312 225.667969 160.589844 225.671875 162.625 Z M 225.671875 162.625 " fill-opacity="1" fill-rule="nonzero"/><g clip-path="url(#f1ed10942c)"><path fill="#0e4f55" d="M 233.117188 186.285156 C 229.378906 183.953125 225.46875 181.949219 221.394531 180.277344 C 216.445312 178.234375 211.351562 176.675781 206.109375 175.601562 L 204.875 162.539062 L 208.179688 165.402344 C 208.523438 165.699219 208.910156 165.917969 209.339844 166.058594 C 209.769531 166.203125 210.207031 166.257812 210.660156 166.226562 C 211.109375 166.191406 211.539062 166.074219 211.941406 165.867188 C 212.347656 165.664062 212.695312 165.390625 212.992188 165.046875 L 203.683594 156.976562 L 187.367188 150.292969 L 171.058594 156.976562 L 161.746094 165.046875 C 162.039062 165.390625 162.390625 165.664062 162.792969 165.867188 C 163.199219 166.074219 163.625 166.191406 164.078125 166.222656 C 164.527344 166.257812 164.96875 166.203125 165.398438 166.058594 C 165.824219 165.914062 166.210938 165.695312 166.554688 165.398438 L 169.859375 162.535156 L 168.625 175.597656 C 163.382812 176.671875 158.285156 178.230469 153.335938 180.273438 C 149.265625 181.949219 145.359375 183.953125 141.621094 186.285156 C 141.199219 186.546875 140.832031 186.867188 140.519531 187.253906 C 140.207031 187.636719 139.964844 188.0625 139.796875 188.53125 C 139.625 188.996094 139.535156 189.476562 139.523438 189.972656 C 139.515625 190.46875 139.585938 190.953125 139.738281 191.425781 C 143.328125 202.621094 149.882812 212.492188 158.234375 219.363281 L 158.234375 219.375 L 159.164062 220.121094 C 159.324219 220.25 159.492188 220.378906 159.652344 220.5 C 165.023438 224.609375 170.921875 227.449219 177.191406 228.945312 C 178.050781 229.152344 178.925781 229.324219 179.800781 229.480469 L 179.777344 229.539062 L 182.058594 229.820312 C 183.824219 230.035156 185.59375 230.140625 187.371094 230.140625 C 203.082031 230.140625 217.671875 221.800781 227.398438 207.265625 C 228.40625 205.761719 229.34375 204.203125 230.214844 202.617188 C 230.5 202.085938 230.78125 201.550781 231.054688 201.015625 L 232.195312 198.765625 L 232.144531 198.765625 C 232.308594 198.40625 232.476562 198.050781 232.632812 197.691406 C 233.03125 196.773438 233.417969 195.839844 233.773438 194.921875 L 234.265625 193.652344 L 234.246094 193.636719 C 234.507812 192.910156 234.761719 192.175781 234.996094 191.4375 L 235 191.4375 C 235.152344 190.964844 235.222656 190.480469 235.214844 189.984375 C 235.203125 189.484375 235.113281 189.003906 234.945312 188.535156 C 234.773438 188.070312 234.53125 187.644531 234.21875 187.257812 C 233.90625 186.871094 233.539062 186.546875 233.117188 186.285156 Z M 173.492188 160.414062 C 173.515625 160.179688 173.597656 159.964844 173.738281 159.773438 C 173.878906 159.582031 174.058594 159.441406 174.277344 159.351562 L 186.886719 154.1875 C 187.207031 154.054688 187.527344 154.054688 187.847656 154.1875 L 200.460938 159.351562 C 200.679688 159.441406 200.859375 159.582031 201 159.773438 C 201.144531 159.964844 201.222656 160.179688 201.246094 160.414062 L 202.484375 173.546875 C 202.5 173.714844 202.480469 173.878906 202.421875 174.035156 C 202.359375 174.195312 202.269531 174.332031 202.148438 174.445312 C 202.023438 174.5625 201.882812 174.644531 201.722656 174.695312 C 201.5625 174.742188 201.398438 174.753906 201.230469 174.730469 C 191.988281 173.363281 182.746094 173.363281 173.503906 174.730469 C 173.335938 174.753906 173.171875 174.742188 173.011719 174.695312 C 172.851562 174.644531 172.710938 174.5625 172.585938 174.445312 C 172.464844 174.332031 172.371094 174.195312 172.3125 174.035156 C 172.253906 173.878906 172.230469 173.714844 172.246094 173.546875 Z M 226.601562 202.0625 C 226.378906 202.449219 226.152344 202.835938 225.917969 203.21875 L 225.609375 203.730469 C 225.269531 204.28125 224.917969 204.824219 224.5625 205.355469 C 217.753906 215.535156 208.425781 222.464844 198.042969 225.289062 C 197.613281 225.40625 197.179688 225.515625 196.742188 225.625 C 195.871094 225.828125 194.988281 226.007812 194.109375 226.15625 C 191.878906 226.53125 189.632812 226.71875 187.371094 226.714844 C 186.953125 226.714844 186.539062 226.710938 186.125 226.699219 C 185.972656 226.699219 185.816406 226.683594 185.660156 226.675781 C 185.398438 226.667969 185.140625 226.65625 184.882812 226.640625 L 184.859375 226.640625 C 185.800781 224.777344 186.867188 222.992188 188.058594 221.277344 C 189.246094 219.5625 190.546875 217.9375 191.957031 216.402344 C 193.371094 214.867188 194.878906 213.4375 196.488281 212.109375 C 198.09375 210.78125 199.785156 209.574219 201.5625 208.480469 C 203.335938 207.386719 205.175781 206.421875 207.082031 205.585938 C 208.988281 204.746094 210.945312 204.042969 212.949219 203.472656 C 214.949219 202.90625 216.984375 202.476562 219.046875 202.191406 C 221.109375 201.902344 223.179688 201.757812 225.261719 201.757812 C 225.761719 201.757812 226.261719 201.765625 226.761719 201.785156 C 226.707031 201.875 226.65625 201.96875 226.601562 202.0625 Z M 230.074219 194.96875 C 229.890625 195.417969 229.699219 195.863281 229.507812 196.308594 C 229.191406 197.03125 228.859375 197.738281 228.519531 198.445312 C 227.441406 198.371094 226.347656 198.335938 225.261719 198.335938 C 206.429688 198.335938 189.300781 209.253906 181.25 226.253906 C 180.152344 226.082031 179.054688 225.871094 177.980469 225.613281 C 177.625 225.53125 177.265625 225.4375 176.914062 225.34375 L 176.617188 225.261719 C 176.363281 225.191406 176.105469 225.121094 175.851562 225.046875 L 175.488281 224.929688 C 175.257812 224.863281 175.027344 224.789062 174.800781 224.71875 C 174.671875 224.675781 174.539062 224.628906 174.410156 224.585938 C 174.191406 224.511719 173.976562 224.441406 173.757812 224.363281 C 173.621094 224.316406 173.484375 224.265625 173.347656 224.210938 C 173.140625 224.132812 172.933594 224.058594 172.726562 223.980469 C 172.582031 223.925781 172.441406 223.871094 172.300781 223.8125 L 171.699219 223.574219 C 171.558594 223.511719 171.414062 223.449219 171.273438 223.386719 C 171.074219 223.304688 170.878906 223.21875 170.683594 223.128906 C 170.539062 223.066406 170.394531 223 170.25 222.933594 C 170.0625 222.84375 169.867188 222.757812 169.679688 222.667969 C 169.53125 222.597656 169.386719 222.527344 169.242188 222.453125 C 169.050781 222.363281 168.867188 222.269531 168.683594 222.171875 C 168.535156 222.101562 168.386719 222.019531 168.242188 221.945312 C 168.058594 221.847656 167.875 221.753906 167.695312 221.65625 C 167.546875 221.574219 167.398438 221.496094 167.253906 221.40625 C 167.070312 221.308594 166.894531 221.210938 166.714844 221.105469 C 166.566406 221.019531 166.421875 220.933594 166.273438 220.847656 C 166.097656 220.742188 165.921875 220.636719 165.746094 220.527344 C 165.597656 220.441406 165.453125 220.347656 165.304688 220.253906 C 165.128906 220.148438 164.960938 220.039062 164.789062 219.925781 C 164.640625 219.832031 164.492188 219.738281 164.34375 219.636719 C 164.175781 219.527344 164.007812 219.414062 163.839844 219.300781 C 163.695312 219.199219 163.546875 219.097656 163.394531 218.992188 C 163.242188 218.886719 163.066406 218.761719 162.90625 218.644531 C 162.757812 218.539062 162.605469 218.433594 162.457031 218.324219 C 162.390625 218.273438 162.320312 218.222656 162.25 218.167969 C 162.539062 217.363281 162.855469 216.5625 163.191406 215.773438 C 163.527344 214.984375 163.886719 214.203125 164.265625 213.433594 C 164.644531 212.664062 165.046875 211.90625 165.46875 211.15625 C 165.890625 210.410156 166.335938 209.675781 166.796875 208.953125 C 167.261719 208.230469 167.742188 207.519531 168.246094 206.824219 C 168.75 206.128906 169.269531 205.449219 169.8125 204.78125 C 170.351562 204.117188 170.910156 203.464844 171.488281 202.828125 C 172.066406 202.195312 172.660156 201.578125 173.269531 200.976562 C 173.882812 200.375 174.507812 199.789062 175.152344 199.222656 C 175.796875 198.65625 176.457031 198.109375 177.132812 197.578125 C 177.804688 197.050781 178.492188 196.539062 179.195312 196.050781 C 179.898438 195.558594 180.617188 195.085938 181.34375 194.636719 C 182.074219 194.1875 182.816406 193.757812 183.566406 193.347656 C 184.320312 192.9375 185.085938 192.550781 185.859375 192.183594 C 186.632812 191.816406 187.417969 191.472656 188.210938 191.152344 C 189.007812 190.828125 189.808594 190.527344 190.621094 190.25 C 191.429688 189.972656 192.246094 189.71875 193.074219 189.488281 C 193.898438 189.257812 194.726562 189.046875 195.5625 188.863281 C 196.398438 188.679688 197.242188 188.515625 198.085938 188.378906 C 198.933594 188.242188 199.78125 188.128906 200.632812 188.039062 C 201.484375 187.945312 202.335938 187.882812 203.191406 187.839844 C 204.046875 187.796875 204.902344 187.777344 205.761719 187.785156 C 206.617188 187.789062 207.472656 187.820312 208.328125 187.871094 C 209.183594 187.925781 210.035156 188.003906 210.886719 188.105469 C 211.734375 188.207031 212.582031 188.332031 213.425781 188.480469 C 214.269531 188.628906 215.109375 188.800781 215.941406 189 C 216.777344 189.195312 217.601562 189.414062 218.425781 189.65625 C 219.246094 189.898438 220.0625 190.164062 220.867188 190.453125 C 221.675781 190.738281 222.472656 191.050781 223.261719 191.382812 C 224.050781 191.714844 224.832031 192.070312 225.601562 192.445312 C 226.371094 192.824219 227.128906 193.222656 227.878906 193.640625 C 228.625 194.058594 229.359375 194.5 230.082031 194.960938 C 230.078125 194.960938 230.078125 194.964844 230.074219 194.96875 Z M 231.75 190.382812 C 231.605469 190.824219 231.460938 191.261719 231.308594 191.695312 C 230.542969 191.222656 229.761719 190.769531 228.96875 190.339844 C 228.179688 189.910156 227.375 189.5 226.5625 189.113281 C 225.746094 188.730469 224.921875 188.363281 224.089844 188.023438 C 223.253906 187.683594 222.414062 187.363281 221.5625 187.070312 C 220.710938 186.773438 219.851562 186.503906 218.984375 186.253906 C 218.121094 186.007812 217.246094 185.785156 216.371094 185.585938 C 215.492188 185.382812 214.609375 185.207031 213.71875 185.058594 C 212.832031 184.90625 211.941406 184.777344 211.046875 184.675781 C 210.152344 184.574219 209.253906 184.496094 208.355469 184.441406 C 207.457031 184.390625 206.558594 184.363281 205.65625 184.359375 C 204.757812 184.355469 203.855469 184.375 202.957031 184.421875 C 202.058594 184.464844 201.160156 184.535156 200.265625 184.632812 C 199.367188 184.726562 198.476562 184.847656 197.585938 184.988281 C 196.699219 185.132812 195.8125 185.300781 194.933594 185.496094 C 194.054688 185.6875 193.179688 185.902344 192.3125 186.144531 C 191.445312 186.382812 190.582031 186.648438 189.730469 186.9375 C 188.875 187.222656 188.03125 187.535156 187.195312 187.867188 C 186.359375 188.203125 185.53125 188.558594 184.714844 188.941406 C 183.894531 189.320312 183.089844 189.722656 182.292969 190.144531 C 181.5 190.570312 180.714844 191.015625 179.945312 191.480469 C 179.175781 191.949219 178.417969 192.433594 177.671875 192.945312 C 176.929688 193.453125 176.199219 193.980469 175.480469 194.527344 C 174.765625 195.078125 174.066406 195.644531 173.382812 196.230469 C 172.699219 196.820312 172.03125 197.425781 171.378906 198.046875 C 170.726562 198.671875 170.09375 199.3125 169.476562 199.972656 C 168.859375 200.628906 168.261719 201.304688 167.679688 201.996094 C 167.101562 202.6875 166.542969 203.394531 166 204.117188 C 165.457031 204.839844 164.9375 205.574219 164.4375 206.324219 C 163.9375 207.074219 163.457031 207.839844 162.996094 208.617188 C 162.539062 209.394531 162.097656 210.183594 161.683594 210.984375 C 161.265625 211.785156 160.871094 212.597656 160.5 213.417969 C 160.128906 214.242188 159.78125 215.074219 159.453125 215.917969 C 152.050781 209.496094 146.246094 200.519531 142.992188 190.382812 C 142.921875 190.15625 142.929688 189.933594 143.011719 189.714844 C 143.09375 189.492188 143.234375 189.320312 143.433594 189.195312 C 156.0625 181.304688 171.257812 177.136719 187.367188 177.136719 C 203.480469 177.136719 218.671875 181.304688 231.3125 189.195312 C 231.511719 189.320312 231.652344 189.492188 231.734375 189.714844 C 231.816406 189.933594 231.820312 190.160156 231.75 190.382812 Z M 231.75 190.382812 " fill-opacity="1" fill-rule="nonzero"/></g><g clip-path="url(#0ce2ff18e8)"><path fill="#0e4f55" d="M 189.277344 98.226562 C 189.03125 97.960938 188.742188 97.757812 188.410156 97.613281 C 188.078125 97.46875 187.730469 97.394531 187.367188 97.394531 C 187.007812 97.394531 186.660156 97.46875 186.328125 97.613281 C 185.996094 97.757812 185.707031 97.960938 185.460938 98.226562 C 184.753906 98.988281 184.085938 99.78125 183.453125 100.601562 C 182.820312 101.425781 182.226562 102.277344 181.671875 103.15625 C 181.121094 104.035156 180.609375 104.941406 180.140625 105.867188 C 179.671875 106.792969 179.246094 107.742188 178.867188 108.710938 C 178.488281 109.675781 178.152344 110.660156 177.867188 111.65625 C 177.578125 112.65625 177.335938 113.667969 177.144531 114.6875 C 176.949219 115.710938 176.804688 116.738281 176.707031 117.773438 C 176.609375 118.808594 176.5625 119.847656 176.5625 120.886719 C 176.5625 121.925781 176.609375 122.960938 176.707031 123.996094 C 176.804688 125.03125 176.949219 126.0625 177.144531 127.082031 C 177.335938 128.105469 177.578125 129.113281 177.867188 130.113281 C 178.152344 131.113281 178.488281 132.09375 178.867188 133.0625 C 179.246094 134.027344 179.671875 134.976562 180.140625 135.902344 C 180.609375 136.832031 181.121094 137.734375 181.671875 138.613281 C 182.226562 139.492188 182.820312 140.34375 183.453125 141.167969 C 184.085938 141.992188 184.753906 142.78125 185.460938 143.542969 C 185.707031 143.808594 185.996094 144.015625 186.328125 144.160156 C 186.660156 144.304688 187.007812 144.375 187.367188 144.375 C 187.730469 144.375 188.078125 144.304688 188.410156 144.160156 C 188.742188 144.015625 189.03125 143.808594 189.277344 143.542969 C 189.984375 142.78125 190.652344 141.992188 191.285156 141.167969 C 191.917969 140.34375 192.511719 139.492188 193.0625 138.613281 C 193.617188 137.734375 194.128906 136.832031 194.59375 135.902344 C 195.0625 134.976562 195.488281 134.027344 195.867188 133.0625 C 196.246094 132.09375 196.582031 131.109375 196.871094 130.113281 C 197.15625 129.113281 197.398438 128.101562 197.589844 127.082031 C 197.785156 126.0625 197.929688 125.03125 198.027344 123.996094 C 198.125 122.960938 198.171875 121.925781 198.171875 120.886719 C 198.171875 119.847656 198.125 118.808594 198.027344 117.773438 C 197.929688 116.738281 197.785156 115.710938 197.589844 114.6875 C 197.398438 113.667969 197.15625 112.65625 196.871094 111.660156 C 196.582031 110.660156 196.246094 109.675781 195.867188 108.710938 C 195.488281 107.742188 195.0625 106.792969 194.59375 105.867188 C 194.128906 104.941406 193.617188 104.035156 193.0625 103.15625 C 192.511719 102.277344 191.917969 101.425781 191.285156 100.601562 C 190.652344 99.78125 189.984375 98.988281 189.277344 98.226562 Z M 191.667969 134.125 C 191.140625 131.820312 190.332031 128.183594 189.503906 124.265625 C 188.9375 121.566406 188.363281 118.738281 187.878906 116.113281 C 187.769531 115.546875 186.964844 115.546875 186.855469 116.113281 C 186.367188 118.734375 185.796875 121.566406 185.230469 124.265625 C 184.402344 128.1875 183.59375 131.824219 183.066406 134.128906 C 182.414062 132.8125 181.863281 131.453125 181.414062 130.054688 C 180.964844 128.65625 180.617188 127.234375 180.378906 125.78125 C 180.136719 124.332031 180.003906 122.875 179.980469 121.402344 C 179.953125 119.933594 180.039062 118.472656 180.226562 117.015625 C 180.417969 115.558594 180.714844 114.121094 181.117188 112.710938 C 181.519531 111.296875 182.023438 109.921875 182.628906 108.582031 C 183.230469 107.242188 183.933594 105.957031 184.726562 104.722656 C 185.519531 103.488281 186.402344 102.316406 187.367188 101.214844 C 188.335938 102.320312 189.214844 103.488281 190.007812 104.722656 C 190.800781 105.957031 191.5 107.246094 192.105469 108.582031 C 192.710938 109.921875 193.210938 111.296875 193.613281 112.710938 C 194.015625 114.121094 194.3125 115.558594 194.503906 117.011719 C 194.691406 118.46875 194.777344 119.933594 194.75 121.402344 C 194.726562 122.871094 194.59375 124.328125 194.355469 125.78125 C 194.113281 127.230469 193.769531 128.652344 193.320312 130.050781 C 192.871094 131.449219 192.320312 132.808594 191.671875 134.125 Z M 191.667969 134.125 " fill-opacity="1" fill-rule="nonzero"/></g><g clip-path="url(#092a3fc2aa)"><path fill="#0e4f55" d="M 257.667969 139.691406 C 257.242188 139.0625 256.660156 138.691406 255.914062 138.570312 C 254.890625 138.40625 253.859375 138.292969 252.824219 138.226562 C 251.792969 138.160156 250.757812 138.144531 249.71875 138.175781 C 248.683594 138.210938 247.652344 138.289062 246.625 138.417969 C 245.59375 138.546875 244.574219 138.726562 243.5625 138.953125 C 242.550781 139.175781 241.550781 139.449219 240.566406 139.769531 C 239.578125 140.089844 238.609375 140.453125 237.660156 140.863281 C 236.707031 141.277344 235.773438 141.730469 234.867188 142.230469 C 233.957031 142.726562 233.070312 143.269531 232.214844 143.851562 C 231.355469 144.433594 230.523438 145.054688 229.722656 145.710938 C 228.921875 146.371094 228.15625 147.070312 227.417969 147.800781 C 226.683594 148.535156 225.984375 149.300781 225.320312 150.097656 C 224.65625 150.898438 224.03125 151.722656 223.445312 152.582031 C 222.859375 153.4375 222.3125 154.320312 221.808594 155.230469 C 221.304688 156.140625 220.84375 157.070312 220.429688 158.023438 C 220.011719 158.972656 219.640625 159.945312 219.3125 160.929688 C 218.988281 161.917969 218.710938 162.917969 218.476562 163.929688 C 218.394531 164.285156 218.386719 164.640625 218.453125 164.996094 C 218.519531 165.351562 218.65625 165.679688 218.855469 165.980469 C 219.058594 166.28125 219.3125 166.527344 219.617188 166.722656 C 219.921875 166.914062 220.253906 167.039062 220.613281 167.097656 C 222.1875 167.347656 223.769531 167.484375 225.363281 167.507812 C 225.515625 167.507812 225.667969 167.507812 225.816406 167.507812 C 226.746094 167.503906 227.671875 167.464844 228.59375 167.386719 C 229.519531 167.304688 230.4375 167.1875 231.351562 167.03125 C 232.265625 166.875 233.171875 166.679688 234.070312 166.445312 C 234.96875 166.210938 235.855469 165.941406 236.730469 165.632812 C 237.605469 165.324219 238.464844 164.980469 239.3125 164.601562 C 240.15625 164.21875 240.984375 163.804688 241.796875 163.355469 C 242.609375 162.90625 243.398438 162.421875 244.171875 161.902344 C 244.941406 161.386719 245.691406 160.839844 246.414062 160.257812 C 247.140625 159.679688 247.839844 159.070312 248.515625 158.429688 C 249.1875 157.792969 249.835938 157.125 250.453125 156.433594 C 251.070312 155.738281 251.660156 155.023438 252.21875 154.277344 C 252.777344 153.535156 253.300781 152.769531 253.796875 151.984375 C 254.289062 151.195312 254.75 150.390625 255.179688 149.5625 C 255.605469 148.738281 255.996094 147.894531 256.351562 147.039062 C 256.707031 146.179688 257.027344 145.304688 257.3125 144.421875 C 257.59375 143.535156 257.839844 142.636719 258.046875 141.730469 C 258.214844 140.996094 258.085938 140.316406 257.667969 139.691406 Z M 242.398438 158.980469 C 238.554688 161.589844 234.332031 163.203125 229.730469 163.824219 C 232.453125 160.902344 237.851562 155.179688 242.488281 150.589844 C 242.898438 150.1875 242.445312 149.511719 241.917969 149.746094 C 236.09375 152.28125 228.992188 155.082031 225.199219 156.5625 C 225.101562 156.597656 225.007812 156.636719 224.914062 156.671875 C 224.996094 156.539062 225.066406 156.40625 225.15625 156.269531 C 225.886719 155.023438 226.707031 153.832031 227.613281 152.703125 C 228.519531 151.570312 229.503906 150.515625 230.5625 149.527344 C 231.625 148.542969 232.75 147.640625 233.941406 146.820312 C 235.132812 146 236.378906 145.269531 237.675781 144.628906 C 238.972656 143.992188 240.3125 143.449219 241.6875 143.007812 C 243.066406 142.566406 244.464844 142.226562 245.894531 141.988281 C 247.320312 141.75 248.753906 141.621094 250.199219 141.59375 C 251.644531 141.566406 253.085938 141.644531 254.519531 141.828125 C 254.066406 143.566406 253.464844 145.25 252.710938 146.878906 C 251.953125 148.507812 251.058594 150.054688 250.023438 151.519531 C 248.988281 152.984375 247.828125 154.34375 246.546875 155.597656 C 245.265625 156.851562 243.878906 157.976562 242.394531 158.980469 Z M 242.398438 158.980469 " fill-opacity="1" fill-rule="nonzero"/></g><path fill="#0e4f55" d="M 224.320312 122.59375 C 224.257812 122.230469 224.128906 121.894531 223.925781 121.585938 C 223.722656 121.28125 223.46875 121.027344 223.160156 120.828125 C 222.851562 120.628906 222.515625 120.5 222.152344 120.445312 C 221.789062 120.390625 221.433594 120.410156 221.078125 120.503906 C 218.347656 121.238281 215.824219 122.425781 213.515625 124.0625 C 211.207031 125.703125 209.253906 127.691406 207.652344 130.03125 C 207.503906 130.238281 207.363281 130.449219 207.226562 130.664062 C 205.632812 133.152344 204.539062 135.847656 203.941406 138.742188 C 203.347656 141.640625 203.289062 144.546875 203.773438 147.464844 C 203.847656 147.941406 204.039062 148.371094 204.34375 148.746094 C 204.867188 149.382812 205.539062 149.699219 206.359375 149.699219 C 206.585938 149.695312 206.8125 149.667969 207.03125 149.609375 C 209.464844 148.957031 211.738281 147.9375 213.847656 146.558594 C 215.957031 145.175781 217.804688 143.5 219.382812 141.53125 C 219.917969 140.863281 220.417969 140.171875 220.875 139.449219 L 220.871094 139.449219 C 222.476562 136.953125 223.574219 134.253906 224.167969 131.34375 C 224.761719 128.4375 224.8125 125.519531 224.320312 122.59375 Z M 218 137.605469 C 217.773438 137.957031 217.539062 138.304688 217.292969 138.640625 C 215.800781 140.6875 213.992188 142.394531 211.867188 143.765625 C 212.585938 141.753906 213.679688 138.785156 214.820312 135.832031 C 215.164062 134.9375 215.511719 134.046875 215.855469 133.183594 C 216.066406 132.652344 215.394531 132.214844 215 132.632812 C 214.453125 133.207031 213.890625 133.792969 213.324219 134.378906 C 211.027344 136.75 208.65625 139.113281 207.0625 140.679688 C 207.480469 137.738281 208.492188 135.015625 210.09375 132.515625 C 210.210938 132.335938 210.328125 132.15625 210.457031 131.976562 C 211.738281 130.101562 213.289062 128.484375 215.109375 127.128906 C 216.929688 125.777344 218.917969 124.757812 221.082031 124.070312 C 221.371094 126.4375 221.253906 128.785156 220.722656 131.109375 C 220.195312 133.433594 219.289062 135.597656 218 137.605469 Z M 218 137.605469 " fill-opacity="1" fill-rule="nonzero"/><g clip-path="url(#2a9bbfb486)"><path fill="#0e4f55" d="M 156.265625 163.933594 C 156.03125 162.921875 155.753906 161.921875 155.425781 160.933594 C 155.101562 159.945312 154.730469 158.976562 154.3125 158.023438 C 153.894531 157.074219 153.433594 156.144531 152.929688 155.234375 C 152.425781 154.324219 151.882812 153.441406 151.296875 152.585938 C 150.710938 151.730469 150.085938 150.902344 149.421875 150.101562 C 148.757812 149.304688 148.054688 148.539062 147.320312 147.804688 C 146.585938 147.074219 145.816406 146.378906 145.015625 145.71875 C 144.214844 145.058594 143.386719 144.4375 142.527344 143.855469 C 141.667969 143.273438 140.785156 142.734375 139.875 142.234375 C 138.964844 141.734375 138.035156 141.28125 137.082031 140.871094 C 136.128906 140.457031 135.160156 140.09375 134.175781 139.773438 C 133.1875 139.453125 132.1875 139.183594 131.175781 138.957031 C 130.164062 138.730469 129.144531 138.554688 128.117188 138.421875 C 127.089844 138.292969 126.058594 138.214844 125.019531 138.179688 C 123.984375 138.148438 122.949219 138.164062 121.914062 138.230469 C 120.882812 138.296875 119.851562 138.410156 118.828125 138.570312 C 118.472656 138.628906 118.140625 138.753906 117.835938 138.949219 C 117.53125 139.144531 117.277344 139.390625 117.074219 139.691406 C 116.875 139.992188 116.738281 140.320312 116.671875 140.675781 C 116.605469 141.03125 116.613281 141.386719 116.691406 141.738281 C 116.902344 142.644531 117.148438 143.542969 117.429688 144.429688 C 117.714844 145.3125 118.035156 146.1875 118.390625 147.046875 C 118.746094 147.90625 119.136719 148.746094 119.566406 149.574219 C 119.992188 150.398438 120.453125 151.207031 120.949219 151.992188 C 121.441406 152.78125 121.96875 153.542969 122.527344 154.289062 C 123.085938 155.03125 123.671875 155.75 124.292969 156.441406 C 124.910156 157.132812 125.558594 157.800781 126.230469 158.441406 C 126.90625 159.078125 127.605469 159.6875 128.332031 160.269531 C 129.054688 160.847656 129.804688 161.394531 130.574219 161.914062 C 131.347656 162.429688 132.136719 162.914062 132.949219 163.363281 C 133.761719 163.8125 134.589844 164.230469 135.4375 164.609375 C 136.28125 164.988281 137.144531 165.332031 138.019531 165.640625 C 138.894531 165.949219 139.78125 166.21875 140.679688 166.453125 C 141.574219 166.6875 142.480469 166.882812 143.394531 167.039062 C 144.308594 167.195312 145.230469 167.3125 146.152344 167.394531 C 147.078125 167.472656 148.003906 167.511719 148.929688 167.515625 C 149.082031 167.515625 149.230469 167.515625 149.382812 167.515625 C 150.976562 167.492188 152.5625 167.355469 154.136719 167.105469 C 154.492188 167.046875 154.824219 166.921875 155.128906 166.726562 C 155.433594 166.535156 155.6875 166.285156 155.886719 165.984375 C 156.089844 165.6875 156.222656 165.359375 156.289062 165.003906 C 156.355469 164.644531 156.347656 164.292969 156.269531 163.9375 Z M 149.539062 156.5625 C 145.75 155.082031 138.652344 152.28125 132.824219 149.742188 C 132.296875 149.511719 131.84375 150.183594 132.253906 150.589844 C 136.894531 155.175781 142.285156 160.902344 145.007812 163.824219 C 143.558594 163.625 142.128906 163.324219 140.722656 162.914062 C 139.316406 162.507812 137.945312 161.996094 136.613281 161.382812 C 135.28125 160.773438 134.003906 160.066406 132.773438 159.265625 C 131.546875 158.464844 130.386719 157.574219 129.289062 156.601562 C 128.191406 155.628906 127.171875 154.578125 126.230469 153.453125 C 125.289062 152.328125 124.433594 151.140625 123.664062 149.890625 C 122.898438 148.636719 122.226562 147.335938 121.652344 145.984375 C 121.074219 144.636719 120.601562 143.25 120.230469 141.828125 C 121.664062 141.644531 123.105469 141.566406 124.550781 141.59375 C 125.996094 141.621094 127.429688 141.753906 128.855469 141.988281 C 130.28125 142.226562 131.683594 142.566406 133.058594 143.011719 C 134.4375 143.453125 135.773438 143.992188 137.070312 144.632812 C 138.367188 145.269531 139.613281 146 140.804688 146.820312 C 141.996094 147.640625 143.121094 148.542969 144.183594 149.53125 C 145.242188 150.515625 146.226562 151.574219 147.132812 152.703125 C 148.039062 153.832031 148.855469 155.023438 149.589844 156.269531 C 149.675781 156.40625 149.75 156.539062 149.828125 156.671875 C 149.734375 156.636719 149.640625 156.597656 149.539062 156.5625 Z M 149.539062 156.5625 " fill-opacity="1" fill-rule="nonzero"/></g><path fill="#0e4f55" d="M 167.507812 130.664062 C 167.371094 130.449219 167.230469 130.238281 167.085938 130.03125 C 165.484375 127.691406 163.53125 125.703125 161.21875 124.0625 C 158.910156 122.425781 156.390625 121.238281 153.660156 120.503906 C 153.304688 120.410156 152.945312 120.390625 152.585938 120.445312 C 152.222656 120.5 151.886719 120.628906 151.578125 120.828125 C 151.269531 121.027344 151.011719 121.28125 150.8125 121.585938 C 150.609375 121.894531 150.476562 122.230469 150.417969 122.59375 C 149.921875 125.519531 149.972656 128.4375 150.570312 131.347656 C 151.164062 134.253906 152.261719 136.957031 153.863281 139.453125 C 154.324219 140.171875 154.820312 140.863281 155.355469 141.527344 C 156.933594 143.5 158.777344 145.175781 160.890625 146.558594 C 163 147.941406 165.273438 148.957031 167.710938 149.613281 C 167.929688 149.667969 168.15625 149.699219 168.382812 149.699219 C 168.691406 149.699219 168.992188 149.644531 169.277344 149.539062 C 169.566406 149.433594 169.828125 149.28125 170.066406 149.082031 C 170.300781 148.882812 170.492188 148.648438 170.644531 148.382812 C 170.796875 148.113281 170.898438 147.828125 170.953125 147.523438 C 171.445312 144.597656 171.398438 141.679688 170.800781 138.769531 C 170.207031 135.863281 169.109375 133.160156 167.507812 130.664062 Z M 161.40625 134.378906 C 160.84375 133.792969 160.28125 133.207031 159.738281 132.632812 C 159.339844 132.214844 158.664062 132.652344 158.882812 133.183594 C 159.226562 134.046875 159.574219 134.9375 159.917969 135.824219 C 161.058594 138.78125 162.148438 141.75 162.878906 143.765625 C 160.75 142.394531 158.9375 140.6875 157.445312 138.640625 C 157.199219 138.304688 156.964844 137.957031 156.738281 137.605469 C 155.449219 135.597656 154.542969 133.433594 154.015625 131.109375 C 153.484375 128.78125 153.363281 126.4375 153.652344 124.070312 C 155.8125 124.753906 157.804688 125.777344 159.621094 127.128906 C 161.441406 128.484375 162.992188 130.097656 164.273438 131.96875 C 164.402344 132.148438 164.523438 132.332031 164.640625 132.515625 C 166.242188 135.015625 167.253906 137.738281 167.671875 140.679688 C 166.078125 139.113281 163.707031 136.753906 161.40625 134.378906 Z M 161.40625 134.378906 " fill-opacity="1" fill-rule="nonzero"/><path fill="#0e4f55" d="M 193.210938 161.949219 L 181.527344 161.949219 C 181.234375 161.949219 180.949219 162.003906 180.679688 162.117188 C 180.40625 162.230469 180.167969 162.390625 179.960938 162.601562 C 179.75 162.808594 179.589844 163.050781 179.480469 163.324219 C 179.367188 163.59375 179.308594 163.878906 179.308594 164.171875 L 179.308594 174.769531 C 179.308594 175.0625 179.367188 175.347656 179.480469 175.621094 C 179.589844 175.894531 179.75 176.132812 179.960938 176.34375 C 180.167969 176.550781 180.40625 176.710938 180.679688 176.824219 C 180.953125 176.9375 181.234375 176.996094 181.527344 176.996094 L 193.214844 176.996094 C 193.507812 176.996094 193.792969 176.9375 194.0625 176.824219 C 194.335938 176.710938 194.574219 176.550781 194.78125 176.34375 C 194.992188 176.132812 195.152344 175.894531 195.261719 175.621094 C 195.375 175.347656 195.433594 175.0625 195.433594 174.769531 L 195.433594 164.171875 C 195.433594 163.878906 195.375 163.59375 195.261719 163.320312 C 195.152344 163.050781 194.988281 162.808594 194.78125 162.597656 C 194.574219 162.390625 194.332031 162.230469 194.0625 162.117188 C 193.789062 162.003906 193.507812 161.949219 193.210938 161.949219 Z M 182.339844 164.988281 L 185.851562 164.988281 L 185.851562 173.949219 L 182.339844 173.949219 Z M 192.394531 173.949219 L 188.886719 173.949219 L 188.886719 164.992188 L 192.394531 164.992188 Z M 192.394531 173.949219 " fill-opacity="1" fill-rule="nonzero"/></svg>