<svg xmlns="http://www.w3.org/2000/svg" xmlns:xlink="http://www.w3.org/1999/xlink" width="500" zoomAndPan="magnify" viewBox="0 0 375 374.999991" height="500" preserveAspectRatio="xMidYMid meet" version="1.0"><path fill="#bfbdbc" d="M 375 187.503906 C 375 291.054688 291.054688 375 187.503906 375 C 83.953125 375 0.0078125 291.054688 0.0078125 187.503906 C 0.0078125 83.949219 83.953125 0.0078125 187.503906 0.0078125 C 291.054688 0.0078125 375 83.949219 375 187.503906 " fill-opacity="1" fill-rule="nonzero"/><path fill="#ffffff" d="M 254.105469 128.230469 C 254.105469 165.144531 224.175781 195.070312 187.261719 195.070312 C 150.347656 195.070312 120.417969 165.144531 120.417969 128.230469 C 120.417969 91.3125 150.347656 61.386719 187.261719 61.386719 C 224.175781 61.386719 254.105469 91.3125 254.105469 128.230469 " fill-opacity="1" fill-rule="nonzero"/><path fill="#ffffff" d="M 187.261719 366.097656 C 234.5625 366.097656 277.765625 348.574219 310.75 319.675781 C 300.511719 252.816406 270.359375 206.414062 187.261719 206.414062 C 106.496094 206.414062 75.238281 253.011719 64.253906 320.105469 C 97.179688 348.75 140.191406 366.097656 187.261719 366.097656 " fill-opacity="1" fill-rule="nonzero"/></svg>