<svg xmlns="http://www.w3.org/2000/svg" xmlns:xlink="http://www.w3.org/1999/xlink" width="500" zoomAndPan="magnify" viewBox="0 0 375 374.999991" height="500" preserveAspectRatio="xMidYMid meet" version="1.0"><defs><clipPath id="7a755775d0"><path d="M 60 152 L 315 152 L 315 362.707031 L 60 362.707031 Z M 60 152 " clip-rule="nonzero"/></clipPath><clipPath id="f97b722704"><path d="M 158 12.457031 L 217 12.457031 L 217 137 L 158 137 Z M 158 12.457031 " clip-rule="nonzero"/></clipPath></defs><path fill="#34b982" d="M 292.675781 289.542969 C 292.675781 289.542969 226.988281 293.707031 202.019531 357.335938 C 202.019531 357.347656 275.726562 343.964844 292.675781 289.542969 Z M 292.675781 289.542969 " fill-opacity="1" fill-rule="nonzero"/><path fill="#34b982" d="M 300.476562 276.457031 C 300.476562 276.457031 182.101562 228.28125 139.894531 348.726562 C 139.894531 348.726562 157.132812 355.566406 175.265625 357.351562 C 175.265625 357.351562 211.828125 274.9375 299.214844 282.984375 Z M 300.476562 276.457031 " fill-opacity="1" fill-rule="nonzero"/><path fill="#34b982" d="M 303.71875 261.269531 C 303.71875 261.269531 201.648438 184.117188 80.929688 290.285156 C 80.929688 290.285156 92.578125 320.558594 116.632812 331.773438 C 116.632812 331.773438 144.652344 254.15625 217.476562 247.015625 C 264.167969 242.171875 303.71875 267.535156 303.71875 267.535156 Z M 303.71875 261.269531 " fill-opacity="1" fill-rule="nonzero"/><path fill="#34b982" d="M 239.605469 126.671875 C 239.605469 126.671875 251.136719 97.132812 279.671875 87.984375 C 279.671875 87.984375 284.355469 122.335938 245.339844 142.1875 L 236.644531 136.421875 C 236.644531 136.421875 239.121094 129.503906 239.605469 126.671875 Z M 239.605469 126.671875 " fill-opacity="1" fill-rule="nonzero"/><path fill="#34b982" d="M 287.425781 167.804688 C 287.425781 167.804688 320.476562 132.820312 367.953125 137.5 C 367.953125 137.5 350.527344 189.695312 286.117188 192.371094 C 286.117188 192.371094 280.242188 180.933594 287.425781 167.804688 Z M 287.425781 167.804688 " fill-opacity="1" fill-rule="nonzero"/><path fill="#34b982" d="M 187.488281 35.125 C 167.535156 57.652344 176.105469 109.371094 176.105469 109.371094 C 179.324219 124.0625 187.488281 125.460938 187.488281 125.460938 C 187.488281 125.460938 195.65625 124.0625 198.875 109.371094 C 198.875 109.371094 207.445312 57.652344 187.488281 35.125 Z M 187.488281 35.125 " fill-opacity="1" fill-rule="nonzero"/><path fill="#34b982" d="M 135.378906 126.671875 C 135.378906 126.671875 123.84375 97.132812 95.308594 87.984375 C 95.308594 87.984375 90.628906 122.335938 129.640625 142.1875 L 138.335938 136.421875 C 138.335938 136.421875 135.859375 129.503906 135.378906 126.671875 Z M 135.378906 126.671875 " fill-opacity="1" fill-rule="nonzero"/><path fill="#34b982" d="M 87.554688 167.804688 C 87.554688 167.804688 54.511719 132.820312 7.027344 137.5 C 7.027344 137.5 24.453125 189.695312 88.863281 192.371094 C 88.863281 192.371094 94.738281 180.933594 87.554688 167.804688 Z M 87.554688 167.804688 " fill-opacity="1" fill-rule="nonzero"/><path fill="#edb46a" d="M 288.8125 184.566406 C 288.8125 192.667969 287.855469 200.65625 285.945312 208.527344 C 284.03125 216.402344 281.21875 223.9375 277.507812 231.136719 C 276.824219 232.460938 276.113281 233.765625 275.371094 235.050781 C 262.691406 230.054688 248.523438 226.109375 233.308594 223.449219 L 227.839844 173.265625 L 187.488281 156.3125 L 144.945312 174.449219 L 141.011719 223.558594 C 126.042969 226.21875 112.109375 230.125 99.609375 235.050781 C 98.867188 233.765625 98.152344 232.464844 97.472656 231.136719 C 93.757812 223.9375 90.945312 216.402344 89.035156 208.527344 C 87.125 200.65625 86.167969 192.667969 86.164062 184.566406 C 86.167969 179.203125 86.582031 173.871094 87.417969 168.574219 C 87.679688 168.675781 87.933594 168.777344 88.171875 168.863281 C 87.960938 168.515625 87.773438 168.164062 87.539062 167.808594 C 88.21875 163.695312 89.152344 159.644531 90.347656 155.652344 C 93.175781 146.117188 97.324219 137.203125 102.800781 128.902344 C 104.523438 126.273438 106.367188 123.734375 108.324219 121.285156 C 112.277344 126.6875 117.070312 131.199219 122.703125 134.8125 C 120.785156 129.503906 117.898438 121.664062 114.875 113.875 C 116.140625 112.558594 117.453125 111.285156 118.804688 110.050781 C 124.886719 116.3125 131.164062 122.546875 135.367188 126.683594 C 134.257812 118.917969 131.585938 111.738281 127.347656 105.140625 C 127.035156 104.65625 126.714844 104.175781 126.382812 103.703125 C 128.78125 101.886719 131.257812 100.171875 133.816406 98.585938 C 141.929688 93.496094 150.589844 89.644531 159.800781 87.03125 C 162.699219 86.21875 165.640625 85.515625 168.640625 84.964844 C 169.777344 93.515625 172.269531 101.65625 176.113281 109.378906 C 177.507812 103.296875 179.652344 93.691406 181.839844 83.355469 C 183.707031 83.242188 185.589844 83.195312 187.488281 83.195312 C 189.386719 83.195312 191.269531 83.242188 193.148438 83.355469 C 195.332031 93.703125 197.480469 103.289062 198.875 109.371094 C 202.710938 101.640625 205.195312 93.496094 206.328125 84.941406 C 209.328125 85.492188 212.265625 86.195312 215.164062 87.007812 C 224.375 89.621094 233.039062 93.472656 241.148438 98.5625 C 243.71875 100.15625 246.199219 101.867188 248.59375 103.691406 C 248.253906 104.160156 247.941406 104.636719 247.628906 105.117188 C 243.390625 111.714844 240.71875 118.894531 239.609375 126.660156 C 243.828125 122.523438 250.101562 116.289062 256.171875 110.027344 C 257.523438 111.261719 258.839844 112.546875 260.113281 113.863281 C 257.09375 121.652344 254.203125 129.492188 252.289062 134.796875 C 257.914062 131.183594 262.699219 126.679688 266.648438 121.285156 C 268.601562 123.734375 270.460938 126.28125 272.175781 128.910156 C 277.652344 137.210938 281.804688 146.125 284.628906 155.660156 C 285.816406 159.648438 286.75 163.695312 287.429688 167.804688 C 287.21875 168.15625 287.007812 168.507812 286.796875 168.859375 C 287.035156 168.769531 287.289062 168.671875 287.550781 168.570312 C 288.386719 173.871094 288.808594 179.203125 288.8125 184.566406 Z M 288.8125 184.566406 " fill-opacity="1" fill-rule="nonzero"/><g clip-path="url(#7a755775d0)"><path fill="#0e4f55" d="M 308.511719 246.996094 C 298.621094 240.84375 288.285156 235.554688 277.503906 231.136719 C 264.414062 225.753906 250.933594 221.640625 237.066406 218.800781 L 233.804688 184.335938 L 242.542969 191.894531 C 242.992188 192.28125 243.476562 192.621094 243.988281 192.914062 C 244.503906 193.207031 245.042969 193.445312 245.605469 193.632812 C 246.167969 193.820312 246.746094 193.949219 247.332031 194.019531 C 247.921875 194.09375 248.511719 194.109375 249.101562 194.066406 C 249.691406 194.023438 250.273438 193.921875 250.84375 193.761719 C 251.417969 193.605469 251.96875 193.394531 252.496094 193.125 C 253.027344 192.859375 253.523438 192.542969 253.992188 192.179688 C 254.457031 191.816406 254.886719 191.410156 255.273438 190.960938 L 230.644531 169.664062 L 187.488281 152.027344 L 144.34375 169.664062 L 119.703125 190.960938 C 120.089844 191.410156 120.519531 191.816406 120.984375 192.179688 C 121.453125 192.546875 121.949219 192.859375 122.480469 193.125 C 123.007812 193.390625 123.558594 193.605469 124.128906 193.761719 C 124.699219 193.917969 125.28125 194.019531 125.871094 194.0625 C 126.464844 194.105469 127.050781 194.089844 127.640625 194.015625 C 128.226562 193.941406 128.804688 193.8125 129.363281 193.625 C 129.925781 193.4375 130.464844 193.199219 130.980469 192.90625 C 131.496094 192.613281 131.976562 192.273438 132.425781 191.886719 L 141.175781 184.328125 L 137.902344 218.792969 C 124.035156 221.632812 110.554688 225.746094 97.464844 231.128906 C 86.6875 235.550781 76.355469 240.835938 66.464844 246.988281 C 65.910156 247.332031 65.390625 247.71875 64.902344 248.144531 C 64.414062 248.574219 63.964844 249.042969 63.554688 249.546875 C 63.144531 250.050781 62.777344 250.585938 62.457031 251.152344 C 62.132812 251.714844 61.859375 252.304688 61.636719 252.914062 C 61.414062 253.523438 61.242188 254.148438 61.121094 254.789062 C 61 255.429688 60.933594 256.074219 60.921875 256.722656 C 60.910156 257.375 60.953125 258.019531 61.046875 258.664062 C 61.140625 259.308594 61.289062 259.9375 61.488281 260.558594 C 70.988281 290.097656 88.324219 316.144531 110.414062 334.265625 L 110.414062 334.296875 L 112.871094 336.265625 C 113.296875 336.605469 113.746094 336.945312 114.167969 337.265625 C 128.375 348.105469 143.980469 355.601562 160.566406 359.546875 C 162.84375 360.089844 165.148438 360.550781 167.46875 360.964844 L 167.40625 361.117188 L 173.445312 361.855469 C 178.109375 362.421875 182.792969 362.703125 187.492188 362.703125 C 229.0625 362.703125 267.65625 340.699219 293.386719 302.347656 C 296.046875 298.386719 298.535156 294.269531 300.832031 290.085938 C 301.59375 288.675781 302.335938 287.269531 303.058594 285.863281 L 306.078125 279.921875 L 305.9375 279.921875 C 306.378906 278.976562 306.820312 278.03125 307.230469 277.089844 C 308.285156 274.660156 309.308594 272.199219 310.25 269.78125 L 311.546875 266.429688 L 311.496094 266.390625 C 312.1875 264.472656 312.859375 262.535156 313.480469 260.589844 L 313.492188 260.589844 C 313.691406 259.96875 313.839844 259.335938 313.9375 258.691406 C 314.03125 258.046875 314.074219 257.402344 314.058594 256.75 C 314.046875 256.097656 313.980469 255.453125 313.863281 254.8125 C 313.742188 254.171875 313.570312 253.546875 313.34375 252.933594 C 313.121094 252.320312 312.847656 251.734375 312.527344 251.167969 C 312.203125 250.601562 311.835938 250.066406 311.425781 249.558594 C 311.015625 249.054688 310.566406 248.585938 310.074219 248.15625 C 309.585938 247.726562 309.066406 247.339844 308.511719 246.996094 Z M 150.78125 178.734375 C 150.839844 178.113281 151.054688 177.546875 151.429688 177.046875 C 151.800781 176.542969 152.277344 176.171875 152.859375 175.933594 L 186.210938 162.304688 C 187.058594 161.960938 187.910156 161.960938 188.757812 162.304688 L 222.125 175.933594 C 222.703125 176.171875 223.179688 176.542969 223.554688 177.046875 C 223.925781 177.546875 224.140625 178.113281 224.199219 178.734375 L 227.480469 213.382812 C 227.5 213.601562 227.496094 213.820312 227.46875 214.039062 C 227.4375 214.257812 227.386719 214.46875 227.308594 214.671875 C 227.230469 214.878906 227.128906 215.074219 227.007812 215.257812 C 226.886719 215.441406 226.746094 215.605469 226.585938 215.757812 C 226.425781 215.90625 226.25 216.039062 226.058594 216.148438 C 225.867188 216.257812 225.667969 216.347656 225.457031 216.410156 C 225.25 216.476562 225.035156 216.515625 224.816406 216.53125 C 224.59375 216.546875 224.378906 216.539062 224.160156 216.503906 C 199.710938 212.898438 175.257812 212.898438 150.808594 216.503906 C 150.589844 216.539062 150.371094 216.546875 150.152344 216.53125 C 149.933594 216.515625 149.71875 216.476562 149.507812 216.410156 C 149.300781 216.347656 149.097656 216.257812 148.910156 216.148438 C 148.71875 216.039062 148.542969 215.90625 148.382812 215.757812 C 148.222656 215.605469 148.082031 215.441406 147.960938 215.257812 C 147.839844 215.074219 147.738281 214.878906 147.660156 214.671875 C 147.582031 214.46875 147.53125 214.257812 147.5 214.039062 C 147.472656 213.820312 147.46875 213.601562 147.488281 213.382812 Z M 291.277344 288.621094 C 290.6875 289.644531 290.085938 290.65625 289.464844 291.671875 L 288.652344 293.023438 C 287.746094 294.472656 286.824219 295.90625 285.882812 297.3125 C 267.875 324.171875 243.195312 342.449219 215.730469 349.902344 C 214.585938 350.214844 213.441406 350.503906 212.285156 350.785156 C 209.980469 351.328125 207.640625 351.800781 205.320312 352.191406 C 199.417969 353.179688 193.476562 353.671875 187.492188 353.667969 C 186.390625 353.667969 185.296875 353.648438 184.203125 353.617188 C 183.792969 353.617188 183.378906 353.578125 182.96875 353.558594 C 182.277344 353.539062 181.59375 353.507812 180.910156 353.46875 L 180.851562 353.46875 C 182.097656 351.015625 183.425781 348.605469 184.835938 346.246094 C 186.25 343.882812 187.738281 341.574219 189.308594 339.3125 C 190.878906 337.054688 192.527344 334.851562 194.246094 332.707031 C 195.96875 330.558594 197.761719 328.476562 199.628906 326.453125 C 201.492188 324.429688 203.425781 322.472656 205.425781 320.585938 C 207.425781 318.695312 209.488281 316.875 211.613281 315.128906 C 213.734375 313.378906 215.917969 311.707031 218.15625 310.109375 C 220.398438 308.511719 222.6875 306.996094 225.035156 305.554688 C 227.378906 304.113281 229.769531 302.757812 232.207031 301.480469 C 234.644531 300.207031 237.121094 299.015625 239.640625 297.910156 C 242.160156 296.808594 244.714844 295.789062 247.300781 294.863281 C 249.890625 293.933594 252.507812 293.09375 255.15625 292.34375 C 257.804688 291.597656 260.472656 290.9375 263.164062 290.375 C 265.855469 289.808594 268.5625 289.335938 271.289062 288.957031 C 274.011719 288.582031 276.746094 288.296875 279.492188 288.105469 C 282.234375 287.914062 284.980469 287.820312 287.734375 287.816406 C 289.054688 287.816406 290.378906 287.835938 291.703125 287.886719 C 291.558594 288.128906 291.417969 288.367188 291.277344 288.621094 Z M 300.46875 269.902344 C 299.976562 271.085938 299.476562 272.265625 298.960938 273.441406 C 298.132812 275.34375 297.25 277.207031 296.34375 279.074219 C 293.496094 278.882812 290.605469 278.785156 287.726562 278.785156 C 237.910156 278.785156 192.597656 307.589844 171.308594 352.445312 C 168.398438 351.992188 165.496094 351.441406 162.652344 350.753906 C 161.707031 350.542969 160.765625 350.292969 159.832031 350.042969 L 159.050781 349.832031 C 158.378906 349.640625 157.695312 349.460938 157.023438 349.257812 L 156.058594 348.957031 C 155.449219 348.777344 154.847656 348.585938 154.246094 348.394531 C 153.90625 348.285156 153.550781 348.164062 153.210938 348.042969 C 152.628906 347.855469 152.058594 347.660156 151.484375 347.460938 C 151.125 347.332031 150.765625 347.203125 150.402344 347.058594 C 149.851562 346.847656 149.296875 346.660156 148.757812 346.449219 C 148.375 346.308594 148.003906 346.15625 147.632812 346.007812 L 146.039062 345.371094 C 145.667969 345.210938 145.285156 345.050781 144.90625 344.878906 C 144.382812 344.667969 143.871094 344.4375 143.351562 344.207031 C 142.96875 344.039062 142.589844 343.867188 142.207031 343.683594 C 141.707031 343.453125 141.191406 343.226562 140.691406 342.984375 C 140.300781 342.800781 139.921875 342.613281 139.539062 342.421875 C 139.035156 342.179688 138.546875 341.929688 138.058594 341.679688 C 137.667969 341.488281 137.277344 341.277344 136.894531 341.078125 C 136.40625 340.824219 135.921875 340.574219 135.441406 340.316406 C 135.050781 340.101562 134.660156 339.890625 134.277344 339.660156 C 133.796875 339.398438 133.324219 339.140625 132.851562 338.867188 C 132.460938 338.636719 132.070312 338.40625 131.679688 338.1875 C 131.21875 337.90625 130.757812 337.625 130.285156 337.339844 C 129.894531 337.109375 129.511719 336.867188 129.121094 336.617188 C 128.660156 336.335938 128.207031 336.046875 127.757812 335.753906 C 127.367188 335.503906 126.972656 335.253906 126.582031 334.992188 C 126.132812 334.699219 125.691406 334.398438 125.25 334.097656 C 124.859375 333.835938 124.464844 333.566406 124.066406 333.285156 C 123.664062 333.003906 123.203125 332.683594 122.769531 332.371094 C 122.378906 332.089844 121.980469 331.808594 121.585938 331.527344 C 121.40625 331.386719 121.226562 331.257812 121.035156 331.117188 C 121.808594 328.984375 122.640625 326.878906 123.53125 324.792969 C 124.421875 322.710938 125.367188 320.652344 126.371094 318.621094 C 127.378906 316.589844 128.4375 314.585938 129.554688 312.613281 C 130.671875 310.644531 131.84375 308.703125 133.070312 306.796875 C 134.296875 304.890625 135.574219 303.019531 136.902344 301.183594 C 138.234375 299.347656 139.613281 297.554688 141.042969 295.796875 C 142.472656 294.039062 143.953125 292.320312 145.476562 290.644531 C 147.003906 288.96875 148.574219 287.339844 150.191406 285.75 C 151.8125 284.164062 153.472656 282.625 155.175781 281.128906 C 156.878906 279.632812 158.621094 278.1875 160.40625 276.792969 C 162.191406 275.394531 164.011719 274.046875 165.871094 272.753906 C 167.730469 271.457031 169.625 270.214844 171.554688 269.027344 C 173.484375 267.839844 175.441406 266.703125 177.433594 265.625 C 179.425781 264.546875 181.449219 263.523438 183.496094 262.554688 C 185.546875 261.589844 187.621094 260.679688 189.722656 259.832031 C 191.820312 258.980469 193.945312 258.1875 196.089844 257.457031 C 198.234375 256.726562 200.394531 256.054688 202.578125 255.445312 C 204.757812 254.832031 206.957031 254.285156 209.167969 253.796875 C 211.382812 253.308594 213.605469 252.882812 215.84375 252.519531 C 218.078125 252.15625 220.324219 251.855469 222.574219 251.617188 C 224.828125 251.378906 227.085938 251.203125 229.351562 251.09375 C 231.613281 250.980469 233.878906 250.933594 236.140625 250.945312 C 238.40625 250.960938 240.671875 251.039062 242.933594 251.183594 C 245.195312 251.324219 247.449219 251.527344 249.699219 251.796875 C 251.949219 252.0625 254.1875 252.394531 256.421875 252.785156 C 258.652344 253.179688 260.871094 253.636719 263.078125 254.152344 C 265.28125 254.667969 267.472656 255.246094 269.644531 255.886719 C 271.820312 256.527344 273.972656 257.226562 276.105469 257.984375 C 278.242188 258.746094 280.351562 259.566406 282.441406 260.445312 C 284.53125 261.320312 286.59375 262.257812 288.628906 263.25 C 290.664062 264.246094 292.671875 265.292969 294.652344 266.398438 C 296.628906 267.503906 298.574219 268.664062 300.488281 269.878906 C 300.476562 269.882812 300.46875 269.890625 300.46875 269.902344 Z M 304.902344 257.804688 C 304.519531 258.96875 304.125 260.125 303.726562 261.269531 C 301.699219 260.019531 299.636719 258.828125 297.542969 257.691406 C 295.445312 256.558594 293.324219 255.480469 291.167969 254.460938 C 289.015625 253.441406 286.835938 252.480469 284.628906 251.582031 C 282.425781 250.679688 280.195312 249.839844 277.945312 249.0625 C 275.691406 248.285156 273.421875 247.570312 271.128906 246.914062 C 268.839844 246.261719 266.53125 245.671875 264.207031 245.144531 C 261.886719 244.617188 259.550781 244.152344 257.199219 243.753906 C 254.851562 243.355469 252.496094 243.019531 250.128906 242.75 C 247.761719 242.480469 245.386719 242.273438 243.007812 242.132812 C 240.632812 241.992188 238.25 241.917969 235.867188 241.90625 C 233.488281 241.898438 231.105469 241.953125 228.726562 242.074219 C 226.347656 242.195312 223.972656 242.378906 221.605469 242.628906 C 219.234375 242.878906 216.875 243.195312 214.523438 243.574219 C 212.171875 243.953125 209.832031 244.398438 207.503906 244.90625 C 205.175781 245.414062 202.863281 245.984375 200.566406 246.621094 C 198.269531 247.253906 195.992188 247.953125 193.734375 248.710938 C 191.476562 249.46875 189.242188 250.289062 187.027344 251.171875 C 184.8125 252.054688 182.625 252.996094 180.464844 253.996094 C 178.304688 254.996094 176.171875 256.058594 174.066406 257.175781 C 171.960938 258.292969 169.890625 259.46875 167.851562 260.699219 C 165.8125 261.933594 163.808594 263.21875 161.839844 264.5625 C 159.867188 265.902344 157.9375 267.296875 156.042969 268.742188 C 154.152344 270.191406 152.300781 271.6875 150.488281 273.238281 C 148.679688 274.785156 146.910156 276.382812 145.1875 278.027344 C 143.464844 279.675781 141.785156 281.367188 140.15625 283.101562 C 138.523438 284.839844 136.941406 286.621094 135.410156 288.445312 C 133.875 290.269531 132.390625 292.132812 130.960938 294.039062 C 129.527344 295.945312 128.152344 297.886719 126.824219 299.867188 C 125.5 301.847656 124.230469 303.863281 123.015625 305.914062 C 121.800781 307.964844 120.640625 310.046875 119.539062 312.160156 C 118.4375 314.273438 117.398438 316.414062 116.414062 318.585938 C 115.429688 320.757812 114.503906 322.953125 113.640625 325.171875 C 94.058594 308.230469 78.703125 284.554688 70.09375 257.800781 C 70.003906 257.511719 69.964844 257.21875 69.972656 256.917969 C 69.984375 256.613281 70.039062 256.320312 70.144531 256.039062 C 70.25 255.757812 70.398438 255.496094 70.589844 255.261719 C 70.78125 255.03125 71.003906 254.832031 71.257812 254.671875 C 104.675781 233.847656 144.871094 222.851562 187.488281 222.851562 C 230.105469 222.851562 270.304688 233.851562 303.738281 254.667969 C 303.996094 254.828125 304.21875 255.027344 304.410156 255.261719 C 304.601562 255.496094 304.75 255.753906 304.855469 256.039062 C 304.960938 256.324219 305.015625 256.617188 305.019531 256.917969 C 305.027344 257.222656 304.984375 257.515625 304.890625 257.804688 Z M 304.902344 257.804688 " fill-opacity="1" fill-rule="nonzero"/></g><g clip-path="url(#f97b722704)"><path fill="#0e4f55" d="M 192.535156 14.660156 C 192.210938 14.3125 191.855469 14.003906 191.472656 13.730469 C 191.085938 13.457031 190.675781 13.226562 190.238281 13.035156 C 189.804688 12.847656 189.355469 12.703125 188.894531 12.609375 C 188.429688 12.511719 187.960938 12.464844 187.488281 12.464844 C 187.015625 12.464844 186.546875 12.511719 186.082031 12.609375 C 185.621094 12.703125 185.171875 12.847656 184.738281 13.035156 C 184.304688 13.226562 183.890625 13.457031 183.507812 13.730469 C 183.121094 14.003906 182.765625 14.3125 182.441406 14.660156 C 181.507812 15.664062 180.597656 16.6875 179.710938 17.730469 C 178.824219 18.777344 177.960938 19.84375 177.125 20.929688 C 176.289062 22.015625 175.480469 23.117188 174.695312 24.242188 C 173.910156 25.367188 173.152344 26.507812 172.421875 27.667969 C 171.691406 28.824219 170.984375 30 170.308594 31.195312 C 169.632812 32.386719 168.984375 33.59375 168.367188 34.816406 C 167.746094 36.039062 167.15625 37.277344 166.59375 38.527344 C 166.035156 39.777344 165.503906 41.039062 165 42.316406 C 164.496094 43.589844 164.027344 44.875 163.582031 46.175781 C 163.140625 47.472656 162.730469 48.777344 162.351562 50.097656 C 161.96875 51.414062 161.621094 52.738281 161.300781 54.070312 C 160.984375 55.402344 160.695312 56.746094 160.441406 58.089844 C 160.183594 59.4375 159.960938 60.789062 159.769531 62.148438 C 159.578125 63.503906 159.417969 64.863281 159.289062 66.230469 C 159.160156 67.59375 159.0625 68.960938 159 70.332031 C 158.933594 71.699219 158.902344 73.070312 158.902344 74.441406 C 158.902344 75.8125 158.933594 77.183594 159 78.550781 C 159.0625 79.921875 159.160156 81.289062 159.289062 82.652344 C 159.417969 84.015625 159.578125 85.378906 159.769531 86.734375 C 159.960938 88.09375 160.183594 89.445312 160.441406 90.792969 C 160.695312 92.136719 160.984375 93.476562 161.300781 94.8125 C 161.621094 96.144531 161.96875 97.46875 162.351562 98.785156 C 162.730469 100.101562 163.140625 101.410156 163.582031 102.707031 C 164.027344 104.003906 164.496094 105.292969 165 106.566406 C 165.503906 107.84375 166.035156 109.105469 166.59375 110.355469 C 167.15625 111.605469 167.746094 112.84375 168.367188 114.066406 C 168.984375 115.289062 169.632812 116.496094 170.308594 117.6875 C 170.984375 118.878906 171.691406 120.054688 172.421875 121.214844 C 173.152344 122.375 173.910156 123.515625 174.695312 124.640625 C 175.480469 125.761719 176.289062 126.867188 177.125 127.953125 C 177.960938 129.039062 178.824219 130.105469 179.710938 131.148438 C 180.597656 132.195312 181.507812 133.21875 182.441406 134.222656 C 182.765625 134.570312 183.121094 134.878906 183.503906 135.152344 C 183.890625 135.425781 184.300781 135.65625 184.738281 135.847656 C 185.171875 136.035156 185.621094 136.179688 186.082031 136.277344 C 186.546875 136.371094 187.015625 136.421875 187.488281 136.421875 C 187.960938 136.421875 188.429688 136.371094 188.894531 136.277344 C 189.359375 136.179688 189.804688 136.035156 190.242188 135.847656 C 190.675781 135.65625 191.085938 135.425781 191.472656 135.152344 C 191.859375 134.878906 192.210938 134.570312 192.535156 134.222656 C 193.46875 133.21875 194.378906 132.195312 195.265625 131.148438 C 196.152344 130.105469 197.011719 129.039062 197.847656 127.953125 C 198.6875 126.867188 199.496094 125.761719 200.28125 124.640625 C 201.066406 123.515625 201.824219 122.375 202.554688 121.214844 C 203.285156 120.054688 203.988281 118.878906 204.664062 117.6875 C 205.339844 116.496094 205.988281 115.289062 206.609375 114.066406 C 207.226562 112.84375 207.816406 111.605469 208.378906 110.355469 C 208.941406 109.105469 209.472656 107.839844 209.972656 106.566406 C 210.476562 105.289062 210.949219 104.003906 211.390625 102.707031 C 211.832031 101.410156 212.242188 100.101562 212.621094 98.785156 C 213.003906 97.46875 213.351562 96.144531 213.671875 94.808594 C 213.988281 93.476562 214.277344 92.136719 214.53125 90.789062 C 214.789062 89.445312 215.011719 88.09375 215.203125 86.734375 C 215.394531 85.378906 215.554688 84.015625 215.683594 82.652344 C 215.8125 81.289062 215.910156 79.921875 215.972656 78.550781 C 216.035156 77.183594 216.070312 75.8125 216.070312 74.441406 C 216.070312 73.070312 216.035156 71.699219 215.972656 70.332031 C 215.910156 68.960938 215.8125 67.59375 215.683594 66.230469 C 215.554688 64.867188 215.394531 63.503906 215.203125 62.148438 C 215.011719 60.789062 214.789062 59.4375 214.53125 58.089844 C 214.277344 56.746094 213.988281 55.40625 213.671875 54.070312 C 213.351562 52.738281 213.003906 51.414062 212.621094 50.097656 C 212.242188 48.78125 211.832031 47.472656 211.390625 46.175781 C 210.949219 44.878906 210.476562 43.589844 209.972656 42.316406 C 209.472656 41.039062 208.941406 39.777344 208.378906 38.527344 C 207.816406 37.277344 207.226562 36.039062 206.609375 34.816406 C 205.988281 33.59375 205.339844 32.386719 204.664062 31.195312 C 203.988281 30.003906 203.285156 28.828125 202.554688 27.667969 C 201.824219 26.507812 201.066406 25.367188 200.28125 24.242188 C 199.496094 23.117188 198.6875 22.015625 197.847656 20.929688 C 197.011719 19.84375 196.152344 18.777344 195.265625 17.730469 C 194.378906 16.6875 193.46875 15.664062 192.535156 14.660156 Z M 198.867188 109.371094 C 197.472656 103.289062 195.324219 93.691406 193.136719 83.355469 C 191.644531 76.238281 190.117188 68.769531 188.835938 61.855469 C 188.554688 60.359375 186.417969 60.359375 186.136719 61.855469 C 184.84375 68.761719 183.328125 76.238281 181.832031 83.355469 C 179.644531 93.703125 177.5 103.296875 176.101562 109.378906 C 175.242188 107.644531 174.449219 105.882812 173.722656 104.089844 C 172.992188 102.292969 172.332031 100.476562 171.734375 98.632812 C 171.140625 96.792969 170.613281 94.929688 170.15625 93.050781 C 169.699219 91.167969 169.3125 89.273438 168.996094 87.363281 C 168.679688 85.453125 168.433594 83.535156 168.257812 81.605469 C 168.082031 79.679688 167.976562 77.746094 167.941406 75.808594 C 167.910156 73.875 167.949219 71.941406 168.058594 70.007812 C 168.167969 68.074219 168.347656 66.148438 168.597656 64.226562 C 168.851562 62.308594 169.171875 60.402344 169.566406 58.503906 C 169.957031 56.609375 170.417969 54.730469 170.949219 52.867188 C 171.480469 51.007812 172.082031 49.167969 172.746094 47.351562 C 173.414062 45.53125 174.148438 43.742188 174.945312 41.980469 C 175.746094 40.214844 176.609375 38.484375 177.535156 36.785156 C 178.460938 35.085938 179.449219 33.421875 180.5 31.796875 C 181.550781 30.167969 182.65625 28.582031 183.824219 27.039062 C 184.992188 25.496094 186.210938 23.996094 187.488281 22.539062 C 188.765625 23.996094 189.984375 25.496094 191.152344 27.039062 C 192.316406 28.585938 193.421875 30.171875 194.472656 31.796875 C 195.519531 33.425781 196.507812 35.085938 197.433594 36.785156 C 198.359375 38.488281 199.21875 40.21875 200.019531 41.980469 C 200.816406 43.742188 201.550781 45.535156 202.214844 47.351562 C 202.882812 49.167969 203.480469 51.007812 204.011719 52.867188 C 204.542969 54.730469 205.003906 56.609375 205.394531 58.503906 C 205.789062 60.398438 206.109375 62.304688 206.359375 64.226562 C 206.613281 66.144531 206.792969 68.070312 206.902344 70.003906 C 207.011719 71.933594 207.050781 73.867188 207.019531 75.804688 C 206.984375 77.738281 206.882812 79.671875 206.707031 81.597656 C 206.53125 83.527344 206.285156 85.445312 205.96875 87.355469 C 205.652344 89.261719 205.265625 91.160156 204.808594 93.039062 C 204.351562 94.921875 203.828125 96.78125 203.234375 98.625 C 202.640625 100.464844 201.980469 102.285156 201.253906 104.078125 C 200.527344 105.871094 199.734375 107.636719 198.875 109.371094 Z M 198.867188 109.371094 " fill-opacity="1" fill-rule="nonzero"/></g><path fill="#0e4f55" d="M 373.460938 124.054688 C 372.921875 123.265625 372.25 122.613281 371.441406 122.097656 C 370.636719 121.585938 369.761719 121.25 368.816406 121.097656 C 367.464844 120.882812 366.105469 120.703125 364.742188 120.550781 C 363.382812 120.402344 362.015625 120.28125 360.648438 120.195312 C 359.28125 120.109375 357.914062 120.054688 356.542969 120.035156 C 355.171875 120.011719 353.804688 120.023438 352.433594 120.0625 C 351.066406 120.105469 349.695312 120.179688 348.332031 120.289062 C 346.964844 120.394531 345.601562 120.53125 344.242188 120.703125 C 342.882812 120.875 341.527344 121.074219 340.179688 121.308594 C 338.828125 121.542969 337.484375 121.808594 336.144531 122.105469 C 334.808594 122.402344 333.480469 122.734375 332.15625 123.09375 C 330.835938 123.453125 329.519531 123.84375 328.21875 124.265625 C 326.914062 124.683594 325.621094 125.136719 324.335938 125.621094 C 323.054688 126.101562 321.785156 126.613281 320.527344 127.15625 C 319.265625 127.695312 318.023438 128.269531 316.789062 128.867188 C 315.558594 129.46875 314.339844 130.097656 313.136719 130.753906 C 311.9375 131.410156 310.75 132.097656 309.578125 132.808594 C 308.410156 133.523438 307.257812 134.261719 306.121094 135.03125 C 304.984375 135.796875 303.867188 136.589844 302.769531 137.410156 C 301.671875 138.230469 300.59375 139.074219 299.535156 139.945312 C 298.476562 140.816406 297.4375 141.710938 296.421875 142.628906 C 295.40625 143.550781 294.410156 144.492188 293.4375 145.457031 C 292.464844 146.421875 291.515625 147.410156 290.589844 148.421875 C 289.664062 149.433594 288.761719 150.464844 287.882812 151.515625 C 287.007812 152.570312 286.152344 153.640625 285.328125 154.734375 C 284.5 155.828125 283.699219 156.9375 282.921875 158.070312 C 282.148438 159.199219 281.398438 160.347656 280.679688 161.511719 C 279.957031 162.679688 279.261719 163.859375 278.597656 165.058594 C 277.929688 166.257812 277.292969 167.46875 276.683594 168.699219 C 276.074219 169.925781 275.496094 171.167969 274.945312 172.421875 C 274.394531 173.679688 273.871094 174.945312 273.382812 176.226562 C 272.890625 177.503906 272.429688 178.796875 272 180.097656 C 271.566406 181.398438 271.167969 182.710938 270.796875 184.027344 C 270.429688 185.347656 270.089844 186.675781 269.785156 188.011719 C 269.675781 188.472656 269.617188 188.941406 269.609375 189.414062 C 269.597656 189.886719 269.636719 190.355469 269.722656 190.820312 C 269.808594 191.285156 269.941406 191.738281 270.121094 192.175781 C 270.300781 192.613281 270.523438 193.027344 270.789062 193.417969 C 271.054688 193.8125 271.355469 194.171875 271.695312 194.5 C 272.035156 194.832031 272.402344 195.121094 272.804688 195.375 C 273.203125 195.628906 273.625 195.839844 274.066406 196.003906 C 274.507812 196.171875 274.964844 196.292969 275.429688 196.363281 C 279.59375 197.027344 283.785156 197.390625 288 197.449219 C 288.402344 197.449219 288.804688 197.449219 289.203125 197.449219 C 291.65625 197.445312 294.105469 197.335938 296.550781 197.125 C 298.992188 196.917969 301.425781 196.605469 303.84375 196.191406 C 306.261719 195.777344 308.65625 195.261719 311.03125 194.648438 C 313.40625 194.03125 315.753906 193.316406 318.066406 192.503906 C 320.382812 191.691406 322.660156 190.785156 324.898438 189.78125 C 327.136719 188.777344 329.328125 187.679688 331.476562 186.492188 C 333.621094 185.304688 335.714844 184.03125 337.753906 182.664062 C 339.792969 181.300781 341.773438 179.855469 343.691406 178.324219 C 345.609375 176.796875 347.460938 175.1875 349.242188 173.503906 C 351.027344 171.816406 352.738281 170.058594 354.371094 168.230469 C 356.007812 166.402344 357.566406 164.507812 359.042969 162.546875 C 360.519531 160.585938 361.910156 158.570312 363.21875 156.492188 C 364.523438 154.414062 365.742188 152.289062 366.871094 150.109375 C 368 147.929688 369.035156 145.707031 369.980469 143.441406 C 370.921875 141.175781 371.765625 138.871094 372.515625 136.535156 C 373.265625 134.199219 373.914062 131.832031 374.464844 129.441406 C 374.675781 128.511719 374.691406 127.582031 374.515625 126.644531 C 374.34375 125.710938 373.992188 124.847656 373.460938 124.054688 Z M 333.0625 174.953125 C 328.046875 178.347656 322.707031 181.125 317.046875 183.28125 C 311.390625 185.441406 305.558594 186.921875 299.554688 187.730469 C 306.757812 180.023438 321.035156 164.921875 333.304688 152.8125 C 334.386719 151.753906 333.191406 149.96875 331.796875 150.582031 C 316.386719 157.277344 297.601562 164.664062 287.566406 168.570312 C 287.304688 168.671875 287.054688 168.769531 286.8125 168.859375 C 287.027344 168.507812 287.214844 168.160156 287.449219 167.804688 C 288.417969 166.15625 289.441406 164.546875 290.527344 162.976562 C 291.613281 161.40625 292.757812 159.875 293.953125 158.386719 C 295.152344 156.898438 296.402344 155.457031 297.703125 154.058594 C 299.003906 152.660156 300.355469 151.3125 301.757812 150.015625 C 303.160156 148.714844 304.605469 147.46875 306.09375 146.277344 C 307.585938 145.082031 309.121094 143.945312 310.695312 142.863281 C 312.269531 141.785156 313.878906 140.761719 315.527344 139.796875 C 317.179688 138.832031 318.859375 137.929688 320.574219 137.089844 C 322.289062 136.25 324.03125 135.472656 325.804688 134.757812 C 327.574219 134.042969 329.367188 133.394531 331.1875 132.8125 C 333.007812 132.226562 334.84375 131.710938 336.699219 131.261719 C 338.554688 130.8125 340.425781 130.433594 342.308594 130.121094 C 344.191406 129.808594 346.085938 129.566406 347.988281 129.390625 C 349.890625 129.214844 351.792969 129.109375 353.703125 129.074219 C 355.613281 129.039062 357.519531 129.074219 359.429688 129.175781 C 361.335938 129.28125 363.234375 129.453125 365.128906 129.695312 C 363.9375 134.28125 362.339844 138.722656 360.34375 143.019531 C 358.34375 147.316406 355.972656 151.398438 353.234375 155.261719 C 350.492188 159.128906 347.429688 162.714844 344.035156 166.023438 C 340.644531 169.332031 336.984375 172.308594 333.050781 174.949219 Z M 333.0625 174.953125 " fill-opacity="1" fill-rule="nonzero"/><path fill="#0e4f55" d="M 285.238281 78.945312 C 285.160156 78.472656 285.03125 78.011719 284.859375 77.566406 C 284.683594 77.117188 284.460938 76.695312 284.199219 76.292969 C 283.933594 75.894531 283.632812 75.523438 283.289062 75.1875 C 282.949219 74.847656 282.574219 74.550781 282.171875 74.289062 C 281.769531 74.03125 281.339844 73.816406 280.890625 73.644531 C 280.445312 73.476562 279.980469 73.355469 279.507812 73.28125 C 279.03125 73.207031 278.554688 73.183594 278.078125 73.210938 C 277.597656 73.234375 277.125 73.3125 276.664062 73.4375 C 273.078125 74.398438 269.605469 75.667969 266.246094 77.246094 C 262.886719 78.820312 259.691406 80.683594 256.660156 82.828125 C 253.628906 84.972656 250.8125 87.367188 248.207031 90.011719 C 245.601562 92.65625 243.25 95.507812 241.148438 98.570312 C 240.757812 99.121094 240.386719 99.675781 240.027344 100.246094 C 237.933594 103.5 236.15625 106.917969 234.695312 110.5 C 233.234375 114.082031 232.113281 117.769531 231.332031 121.558594 C 230.550781 125.347656 230.121094 129.175781 230.046875 133.042969 C 229.972656 136.910156 230.25 140.753906 230.886719 144.570312 C 231.085938 145.832031 231.585938 146.957031 232.390625 147.949219 C 233.046875 148.746094 233.84375 149.363281 234.777344 149.804688 C 235.714844 150.242188 236.695312 150.460938 237.730469 150.460938 C 238.332031 150.457031 238.921875 150.382812 239.503906 150.230469 C 242.703125 149.371094 245.816406 148.269531 248.839844 146.917969 C 251.863281 145.566406 254.765625 143.984375 257.539062 142.175781 C 260.3125 140.363281 262.925781 138.347656 265.382812 136.125 C 267.835938 133.898438 270.101562 131.496094 272.175781 128.910156 C 273.597656 127.15625 274.914062 125.324219 276.132812 123.421875 L 276.121094 123.421875 C 278.222656 120.15625 280.003906 116.726562 281.46875 113.132812 C 282.933594 109.539062 284.058594 105.839844 284.835938 102.039062 C 285.617188 98.234375 286.039062 94.390625 286.109375 90.511719 C 286.175781 86.628906 285.886719 82.773438 285.238281 78.945312 Z M 268.523438 118.554688 C 267.921875 119.488281 267.304688 120.402344 266.652344 121.285156 C 262.707031 126.6875 257.921875 131.195312 252.292969 134.8125 C 254.195312 129.503906 257.089844 121.664062 260.105469 113.875 C 261.019531 111.515625 261.941406 109.167969 262.847656 106.886719 C 263.410156 105.484375 261.625 104.328125 260.582031 105.433594 C 259.136719 106.949219 257.652344 108.492188 256.148438 110.039062 C 250.082031 116.304688 243.800781 122.535156 239.585938 126.671875 C 240.699219 118.90625 243.371094 111.726562 247.609375 105.128906 C 247.917969 104.648438 248.230469 104.175781 248.570312 103.703125 C 250.253906 101.246094 252.125 98.945312 254.191406 96.796875 C 256.253906 94.652344 258.484375 92.691406 260.875 90.917969 C 263.265625 89.144531 265.785156 87.578125 268.4375 86.222656 C 271.089844 84.871094 273.832031 83.742188 276.671875 82.84375 C 277.054688 85.945312 277.164062 89.050781 277.007812 92.171875 C 276.847656 95.289062 276.421875 98.371094 275.726562 101.414062 C 275.03125 104.457031 274.082031 107.417969 272.871094 110.296875 C 271.660156 113.175781 270.214844 115.925781 268.523438 118.554688 Z M 268.523438 118.554688 " fill-opacity="1" fill-rule="nonzero"/><path fill="#0e4f55" d="M 105.207031 188.019531 C 104.898438 186.683594 104.558594 185.355469 104.191406 184.035156 C 103.820312 182.714844 103.421875 181.40625 102.988281 180.105469 C 102.558594 178.804688 102.097656 177.511719 101.605469 176.234375 C 101.113281 174.953125 100.59375 173.6875 100.042969 172.429688 C 99.492188 171.175781 98.910156 169.933594 98.300781 168.707031 C 97.691406 167.480469 97.054688 166.265625 96.386719 165.066406 C 95.722656 163.871094 95.027344 162.6875 94.308594 161.523438 C 93.585938 160.359375 92.835938 159.210938 92.0625 158.078125 C 91.285156 156.949219 90.484375 155.839844 89.65625 154.746094 C 88.832031 153.652344 87.976562 152.582031 87.101562 151.527344 C 86.222656 150.476562 85.320312 149.445312 84.394531 148.433594 C 83.46875 147.421875 82.519531 146.4375 81.546875 145.46875 C 80.574219 144.503906 79.578125 143.5625 78.5625 142.644531 C 77.546875 141.722656 76.507812 140.828125 75.449219 139.960938 C 74.390625 139.089844 73.3125 138.246094 72.214844 137.425781 C 71.117188 136.605469 70 135.8125 68.863281 135.042969 C 67.726562 134.277344 66.574219 133.535156 65.40625 132.824219 C 64.234375 132.109375 63.050781 131.425781 61.847656 130.769531 C 60.644531 130.109375 59.425781 129.480469 58.195312 128.882812 C 56.964844 128.28125 55.71875 127.710938 54.460938 127.167969 C 53.203125 126.625 51.929688 126.113281 50.648438 125.632812 C 49.367188 125.148438 48.074219 124.699219 46.769531 124.277344 C 45.464844 123.855469 44.152344 123.464844 42.832031 123.105469 C 41.507812 122.746094 40.179688 122.417969 38.839844 122.121094 C 37.503906 121.820312 36.160156 121.554688 34.808594 121.320312 C 33.460938 121.085938 32.105469 120.886719 30.746094 120.714844 C 29.386719 120.542969 28.023438 120.40625 26.65625 120.296875 C 25.292969 120.191406 23.925781 120.117188 22.554688 120.074219 C 21.183594 120.03125 19.816406 120.019531 18.445312 120.042969 C 17.074219 120.0625 15.707031 120.117188 14.339844 120.203125 C 12.972656 120.289062 11.605469 120.410156 10.246094 120.558594 C 8.882812 120.707031 7.527344 120.890625 6.171875 121.105469 C 5.707031 121.179688 5.25 121.300781 4.808594 121.46875 C 4.367188 121.632812 3.945312 121.84375 3.546875 122.097656 C 3.148438 122.351562 2.78125 122.644531 2.441406 122.976562 C 2.101562 123.304688 1.800781 123.664062 1.535156 124.058594 C 1.269531 124.449219 1.046875 124.863281 0.867188 125.300781 C 0.6875 125.738281 0.554688 126.191406 0.46875 126.65625 C 0.382812 127.121094 0.34375 127.589844 0.351562 128.0625 C 0.359375 128.535156 0.417969 129.003906 0.523438 129.464844 C 1.074219 131.855469 1.726562 134.21875 2.476562 136.558594 C 3.222656 138.894531 4.070312 141.195312 5.011719 143.460938 C 5.957031 145.730469 6.992188 147.953125 8.121094 150.128906 C 9.25 152.308594 10.46875 154.4375 11.777344 156.515625 C 13.085938 158.589844 14.476562 160.609375 15.957031 162.570312 C 17.433594 164.53125 18.988281 166.421875 20.625 168.253906 C 22.261719 170.082031 23.972656 171.839844 25.753906 173.523438 C 27.539062 175.210938 29.390625 176.816406 31.308594 178.347656 C 33.226562 179.878906 35.207031 181.324219 37.246094 182.6875 C 39.285156 184.050781 41.378906 185.328125 43.527344 186.515625 C 45.675781 187.703125 47.867188 188.800781 50.105469 189.800781 C 52.34375 190.804688 54.621094 191.714844 56.9375 192.527344 C 59.253906 193.339844 61.597656 194.054688 63.972656 194.667969 C 66.347656 195.285156 68.746094 195.796875 71.164062 196.210938 C 73.582031 196.625 76.011719 196.9375 78.457031 197.148438 C 80.902344 197.359375 83.351562 197.464844 85.804688 197.46875 C 86.207031 197.46875 86.597656 197.46875 86.996094 197.46875 C 91.21875 197.410156 95.410156 197.050781 99.578125 196.386719 C 100.042969 196.3125 100.5 196.191406 100.941406 196.023438 C 101.382812 195.855469 101.800781 195.644531 102.199219 195.394531 C 102.597656 195.140625 102.96875 194.847656 103.304688 194.519531 C 103.644531 194.1875 103.945312 193.828125 104.210938 193.4375 C 104.476562 193.042969 104.695312 192.628906 104.875 192.191406 C 105.054688 191.753906 105.1875 191.304688 105.273438 190.839844 C 105.359375 190.375 105.398438 189.90625 105.386719 189.433594 C 105.378906 188.960938 105.320312 188.496094 105.214844 188.035156 Z M 87.417969 168.574219 C 77.386719 164.664062 58.617188 157.277344 43.199219 150.582031 C 41.804688 149.96875 40.601562 151.746094 41.683594 152.808594 C 53.964844 164.914062 68.222656 180.019531 75.429688 187.726562 C 73.515625 187.46875 71.609375 187.140625 69.714844 186.738281 C 67.824219 186.339844 65.949219 185.871094 64.089844 185.332031 C 62.230469 184.792969 60.394531 184.1875 58.582031 183.515625 C 56.769531 182.839844 54.980469 182.101562 53.222656 181.292969 C 51.464844 180.488281 49.738281 179.617188 48.042969 178.6875 C 46.347656 177.753906 44.6875 176.757812 43.066406 175.703125 C 41.445312 174.644531 39.867188 173.53125 38.324219 172.359375 C 36.785156 171.1875 35.292969 169.960938 33.84375 168.675781 C 32.394531 167.394531 30.996094 166.058594 29.644531 164.675781 C 28.292969 163.289062 26.996094 161.855469 25.753906 160.371094 C 24.507812 158.890625 23.320312 157.363281 22.1875 155.796875 C 21.054688 154.226562 19.980469 152.617188 18.96875 150.96875 C 17.957031 149.320312 17.003906 147.636719 16.113281 145.914062 C 15.226562 144.195312 14.402344 142.449219 13.640625 140.667969 C 12.878906 138.886719 12.1875 137.082031 11.558594 135.25 C 10.933594 133.417969 10.375 131.566406 9.882812 129.695312 C 11.777344 129.453125 13.675781 129.28125 15.582031 129.175781 C 17.492188 129.074219 19.398438 129.039062 21.308594 129.078125 C 23.214844 129.113281 25.121094 129.21875 27.023438 129.390625 C 28.921875 129.566406 30.816406 129.8125 32.699219 130.125 C 34.582031 130.4375 36.453125 130.816406 38.308594 131.265625 C 40.164062 131.714844 42 132.230469 43.820312 132.816406 C 45.636719 133.398438 47.433594 134.046875 49.203125 134.761719 C 50.972656 135.472656 52.714844 136.253906 54.429688 137.09375 C 56.144531 137.933594 57.824219 138.835938 59.476562 139.800781 C 61.125 140.765625 62.734375 141.785156 64.308594 142.867188 C 65.882812 143.949219 67.414062 145.085938 68.90625 146.28125 C 70.398438 147.472656 71.84375 148.71875 73.242188 150.015625 C 74.644531 151.316406 75.996094 152.664062 77.296875 154.058594 C 78.597656 155.457031 79.847656 156.898438 81.046875 158.386719 C 82.242188 159.875 83.382812 161.40625 84.46875 162.976562 C 85.554688 164.550781 86.582031 166.15625 87.550781 167.804688 C 87.773438 168.15625 87.972656 168.507812 88.183594 168.859375 C 87.933594 168.769531 87.679688 168.667969 87.417969 168.574219 Z M 87.417969 168.574219 " fill-opacity="1" fill-rule="nonzero"/><path fill="#0e4f55" d="M 134.949219 100.246094 C 134.589844 99.675781 134.21875 99.121094 133.828125 98.570312 C 131.726562 95.507812 129.375 92.65625 126.769531 90.011719 C 124.164062 87.367188 121.347656 84.972656 118.316406 82.828125 C 115.289062 80.683594 112.09375 78.824219 108.734375 77.246094 C 105.371094 75.667969 101.902344 74.398438 98.316406 73.4375 C 97.851562 73.3125 97.382812 73.234375 96.902344 73.210938 C 96.421875 73.183594 95.945312 73.207031 95.472656 73.28125 C 94.996094 73.355469 94.535156 73.476562 94.085938 73.644531 C 93.636719 73.816406 93.210938 74.03125 92.804688 74.289062 C 92.402344 74.550781 92.03125 74.847656 91.6875 75.1875 C 91.347656 75.523438 91.042969 75.894531 90.78125 76.292969 C 90.515625 76.695312 90.296875 77.117188 90.121094 77.566406 C 89.945312 78.011719 89.816406 78.472656 89.738281 78.945312 C 89.089844 82.777344 88.800781 86.632812 88.867188 90.511719 C 88.933594 94.394531 89.359375 98.238281 90.140625 102.042969 C 90.917969 105.847656 92.042969 109.546875 93.507812 113.140625 C 94.972656 116.738281 96.753906 120.167969 98.855469 123.429688 C 100.070312 125.328125 101.386719 127.148438 102.800781 128.902344 C 104.875 131.488281 107.136719 133.894531 109.59375 136.121094 C 112.046875 138.347656 114.664062 140.367188 117.4375 142.175781 C 120.214844 143.988281 123.117188 145.570312 126.140625 146.921875 C 129.167969 148.273438 132.28125 149.375 135.484375 150.234375 C 136.070312 150.382812 136.664062 150.460938 137.269531 150.460938 C 137.671875 150.460938 138.074219 150.425781 138.46875 150.355469 C 138.867188 150.285156 139.253906 150.179688 139.636719 150.042969 C 140.015625 149.902344 140.378906 149.730469 140.726562 149.53125 C 141.074219 149.328125 141.40625 149.09375 141.710938 148.835938 C 142.019531 148.574219 142.304688 148.289062 142.5625 147.976562 C 142.820312 147.667969 143.050781 147.335938 143.25 146.984375 C 143.449219 146.636719 143.617188 146.269531 143.753906 145.890625 C 143.890625 145.507812 143.992188 145.121094 144.058594 144.722656 C 144.707031 140.894531 145 137.039062 144.933594 133.160156 C 144.867188 129.277344 144.445312 125.433594 143.664062 121.632812 C 142.886719 117.828125 141.765625 114.128906 140.300781 110.535156 C 138.835938 106.941406 137.050781 103.511719 134.949219 100.246094 Z M 118.8125 110.042969 C 117.316406 108.496094 115.832031 106.953125 114.398438 105.433594 C 113.339844 104.332031 111.558594 105.484375 112.128906 106.890625 C 113.042969 109.167969 113.964844 111.519531 114.875 113.859375 C 117.890625 121.660156 120.773438 129.488281 122.699219 134.804688 C 117.066406 131.195312 112.277344 126.6875 108.332031 121.285156 C 107.679688 120.402344 107.0625 119.488281 106.457031 118.554688 C 104.769531 115.925781 103.320312 113.175781 102.109375 110.296875 C 100.898438 107.417969 99.945312 104.457031 99.25 101.410156 C 98.554688 98.367188 98.128906 95.285156 97.96875 92.167969 C 97.808594 89.050781 97.917969 85.941406 98.300781 82.839844 C 101.136719 83.742188 103.878906 84.867188 106.527344 86.222656 C 109.179688 87.578125 111.699219 89.144531 114.089844 90.917969 C 116.480469 92.691406 118.707031 94.648438 120.773438 96.792969 C 122.839844 98.933594 124.714844 101.234375 126.398438 103.6875 C 126.730469 104.160156 127.050781 104.644531 127.363281 105.125 C 131.601562 111.722656 134.273438 118.902344 135.382812 126.667969 C 131.171875 122.535156 124.890625 116.304688 118.8125 110.042969 Z M 118.8125 110.042969 " fill-opacity="1" fill-rule="nonzero"/><path fill="#0e4f55" d="M 202.949219 182.78125 L 172.035156 182.78125 C 171.648438 182.78125 171.269531 182.820312 170.890625 182.894531 C 170.511719 182.96875 170.148438 183.082031 169.789062 183.230469 C 169.433594 183.378906 169.097656 183.558594 168.777344 183.773438 C 168.457031 183.988281 168.160156 184.230469 167.886719 184.503906 C 167.617188 184.777344 167.371094 185.074219 167.160156 185.394531 C 166.945312 185.714844 166.765625 186.050781 166.617188 186.40625 C 166.46875 186.761719 166.359375 187.128906 166.28125 187.507812 C 166.207031 187.886719 166.167969 188.269531 166.167969 188.652344 L 166.167969 216.609375 C 166.167969 216.992188 166.207031 217.375 166.28125 217.753906 C 166.359375 218.132812 166.46875 218.5 166.617188 218.855469 C 166.765625 219.210938 166.945312 219.550781 167.160156 219.871094 C 167.375 220.191406 167.617188 220.488281 167.890625 220.757812 C 168.164062 221.03125 168.457031 221.277344 168.777344 221.488281 C 169.097656 221.703125 169.4375 221.886719 169.792969 222.03125 C 170.148438 222.179688 170.515625 222.292969 170.894531 222.367188 C 171.273438 222.441406 171.652344 222.480469 172.039062 222.480469 L 202.953125 222.480469 C 203.335938 222.480469 203.71875 222.441406 204.097656 222.367188 C 204.476562 222.292969 204.839844 222.179688 205.199219 222.03125 C 205.554688 221.886719 205.890625 221.703125 206.210938 221.488281 C 206.53125 221.277344 206.828125 221.03125 207.101562 220.757812 C 207.375 220.488281 207.617188 220.191406 207.832031 219.871094 C 208.046875 219.550781 208.226562 219.210938 208.375 218.855469 C 208.523438 218.5 208.632812 218.132812 208.707031 217.753906 C 208.785156 217.375 208.820312 216.992188 208.824219 216.609375 L 208.824219 188.652344 C 208.820312 188.269531 208.785156 187.886719 208.707031 187.507812 C 208.632812 187.128906 208.523438 186.761719 208.375 186.40625 C 208.226562 186.050781 208.046875 185.710938 207.832031 185.390625 C 207.617188 185.070312 207.371094 184.773438 207.101562 184.5 C 206.828125 184.226562 206.53125 183.984375 206.210938 183.769531 C 205.890625 183.554688 205.550781 183.375 205.195312 183.226562 C 204.839844 183.078125 204.472656 182.96875 204.09375 182.894531 C 203.714844 182.816406 203.332031 182.78125 202.949219 182.78125 Z M 174.191406 190.804688 L 183.480469 190.804688 L 183.480469 214.445312 L 174.191406 214.445312 Z M 200.789062 214.445312 L 191.5 214.445312 L 191.5 190.808594 L 200.789062 190.808594 Z M 200.789062 214.445312 " fill-opacity="1" fill-rule="nonzero"/></svg>