<svg xmlns="http://www.w3.org/2000/svg" xmlns:xlink="http://www.w3.org/1999/xlink" width="500" zoomAndPan="magnify" viewBox="0 0 375 374.999991" height="500" preserveAspectRatio="xMidYMid meet" version="1.0"><defs><g/><clipPath id="25d2b449ee"><path d="M 74 128 L 301 128 L 301 316.988281 L 74 316.988281 Z M 74 128 " clip-rule="nonzero"/></clipPath><clipPath id="16bb6f5fe7"><path d="M 161 4.238281 L 213 4.238281 L 213 115 L 161 115 Z M 161 4.238281 " clip-rule="nonzero"/></clipPath><clipPath id="2775da30b6"><path d="M 260 100 L 354.660156 100 L 354.660156 170 L 260 170 Z M 260 100 " clip-rule="nonzero"/></clipPath><clipPath id="eb5031fa47"><path d="M 20.160156 100 L 115 100 L 115 170 L 20.160156 170 Z M 20.160156 100 " clip-rule="nonzero"/></clipPath></defs><g fill="#0e4f55" fill-opacity="1"><g transform="translate(97.969594, 344.087016)"><g><path d="M 8.171875 -15.5 L 8.078125 -11.859375 L 10.21875 -11.859375 L 13.859375 -11.953125 L 14.203125 -11.5 L 13.828125 -6.921875 L 9.78125 -7.015625 L 7.953125 -7.015625 L 7.953125 -6.609375 L 8.203125 0 L 1.890625 0 L 2.203125 -5.96875 L 1.890625 -20.34375 L 15.46875 -20.34375 L 15.8125 -19.90625 L 15.40625 -15.3125 L 10.375 -15.5 Z M 8.171875 -15.5 "/></g></g></g><g fill="#0e4f55" fill-opacity="1"><g transform="translate(117.806322, 344.087016)"><g><path d="M 19.390625 0 L 13.015625 0 L 12.453125 -3.359375 L 12.421875 -3.453125 L 9.34375 -3.515625 L 6.765625 -3.390625 L 6.21875 0 L 0.0625 0 L 6.21875 -20.34375 L 13.828125 -20.34375 Z M 11.46875 -8.046875 L 10.09375 -14.71875 L 9.71875 -14.71875 L 7.953125 -8.046875 L 9.71875 -8.015625 Z M 11.46875 -8.046875 "/></g></g></g><g fill="#0e4f55" fill-opacity="1"><g transform="translate(142.232819, 344.087016)"><g><path d="M 15.28125 -8.015625 C 16.789062 -5.671875 18.300781 -3.492188 19.8125 -1.484375 L 19.71875 -0.78125 C 17.570312 -0.132812 15.460938 0.25 13.390625 0.375 L 12.796875 -0.125 L 12.421875 -0.90625 C 12.253906 -1.25 11.914062 -1.957031 11.40625 -3.03125 C 10.90625 -4.113281 10.46875 -5.125 10.09375 -6.0625 L 7.984375 -6.0625 L 8.203125 0 L 1.890625 0 L 2.203125 -5.96875 L 1.890625 -20.34375 L 11.53125 -20.375 C 13.820312 -20.375 15.582031 -19.832031 16.8125 -18.75 C 18.050781 -17.675781 18.671875 -16.117188 18.671875 -14.078125 C 18.671875 -12.890625 18.367188 -11.769531 17.765625 -10.71875 C 17.171875 -9.664062 16.34375 -8.765625 15.28125 -8.015625 Z M 12.046875 -13.453125 C 12.046875 -14.296875 11.828125 -14.921875 11.390625 -15.328125 C 10.960938 -15.734375 10.269531 -15.957031 9.3125 -16 L 8.171875 -15.90625 L 8.046875 -10.65625 L 10.34375 -10.53125 C 10.925781 -10.800781 11.351562 -11.164062 11.625 -11.625 C 11.90625 -12.09375 12.046875 -12.703125 12.046875 -13.453125 Z M 12.046875 -13.453125 "/></g></g></g><g fill="#0e4f55" fill-opacity="1"><g transform="translate(166.785058, 344.087016)"><g><path d="M 24.328125 0 L 18.796875 0 L 18.640625 -6.15625 L 18.296875 -11.28125 L 17.921875 -11.28125 L 14.65625 -1.921875 L 9.90625 -1.921875 L 7.203125 -11.28125 L 6.828125 -11.28125 L 6.375 -6.765625 L 6.0625 0 L 0.8125 0 L 2.796875 -20.34375 L 10.0625 -20.34375 L 10.65625 -17.453125 L 12.453125 -10.0625 L 12.828125 -10.0625 L 14.8125 -17.234375 L 15.53125 -20.34375 L 22.703125 -20.34375 Z M 24.328125 0 "/></g></g></g><g fill="#0e4f55" fill-opacity="1"><g transform="translate(196.838745, 344.087016)"><g><path d="M 9.59375 -20.71875 C 11.582031 -20.71875 13.550781 -20.347656 15.5 -19.609375 L 14.5 -14.5 L 13.609375 -14.109375 C 12.734375 -14.660156 11.863281 -15.09375 11 -15.40625 C 10.144531 -15.71875 9.453125 -15.875 8.921875 -15.875 C 8.441406 -15.875 8.0625 -15.78125 7.78125 -15.59375 C 7.5 -15.40625 7.359375 -15.15625 7.359375 -14.84375 C 7.359375 -14.4375 7.570312 -14.09375 8 -13.8125 C 8.425781 -13.53125 9.144531 -13.160156 10.15625 -12.703125 C 11.332031 -12.179688 12.296875 -11.691406 13.046875 -11.234375 C 13.796875 -10.785156 14.453125 -10.164062 15.015625 -9.375 C 15.585938 -8.59375 15.875 -7.625 15.875 -6.46875 C 15.875 -5.195312 15.519531 -4.039062 14.8125 -3 C 14.113281 -1.96875 13.113281 -1.144531 11.8125 -0.53125 C 10.519531 0.0703125 9.015625 0.375 7.296875 0.375 C 5.160156 0.375 2.914062 -0.0195312 0.5625 -0.8125 L 1.484375 -6.28125 L 2.109375 -6.671875 C 3.066406 -5.929688 4.097656 -5.347656 5.203125 -4.921875 C 6.304688 -4.492188 7.222656 -4.28125 7.953125 -4.28125 C 8.535156 -4.28125 8.957031 -4.378906 9.21875 -4.578125 C 9.488281 -4.773438 9.625 -5.019531 9.625 -5.3125 C 9.625 -5.75 9.394531 -6.117188 8.9375 -6.421875 C 8.488281 -6.734375 7.765625 -7.109375 6.765625 -7.546875 C 5.609375 -8.046875 4.65625 -8.519531 3.90625 -8.96875 C 3.164062 -9.425781 2.519531 -10.046875 1.96875 -10.828125 C 1.425781 -11.617188 1.15625 -12.585938 1.15625 -13.734375 C 1.15625 -15.054688 1.507812 -16.242188 2.21875 -17.296875 C 2.9375 -18.359375 3.9375 -19.191406 5.21875 -19.796875 C 6.5 -20.410156 7.957031 -20.71875 9.59375 -20.71875 Z M 9.59375 -20.71875 "/></g></g></g><g fill="#0e4f55" fill-opacity="1"><g transform="translate(218.15299, 344.087016)"><g><path d="M 10.71875 -20.71875 C 13.675781 -20.71875 15.960938 -19.84375 17.578125 -18.09375 C 19.191406 -16.34375 20 -13.875 20 -10.6875 C 20 -7.164062 19.113281 -4.441406 17.34375 -2.515625 C 15.570312 -0.585938 13.0625 0.375 9.8125 0.375 C 6.851562 0.375 4.566406 -0.507812 2.953125 -2.28125 C 1.335938 -4.050781 0.53125 -6.5625 0.53125 -9.8125 C 0.53125 -13.289062 1.414062 -15.976562 3.1875 -17.875 C 4.957031 -19.769531 7.46875 -20.71875 10.71875 -20.71875 Z M 10.15625 -15.6875 C 9.332031 -15.6875 8.710938 -15.546875 8.296875 -15.265625 C 7.878906 -14.984375 7.582031 -14.484375 7.40625 -13.765625 C 7.226562 -13.054688 7.140625 -12.019531 7.140625 -10.65625 C 7.140625 -8.914062 7.234375 -7.59375 7.421875 -6.6875 C 7.609375 -5.789062 7.925781 -5.164062 8.375 -4.8125 C 8.820312 -4.457031 9.488281 -4.28125 10.375 -4.28125 C 11.1875 -4.28125 11.800781 -4.421875 12.21875 -4.703125 C 12.644531 -4.984375 12.945312 -5.484375 13.125 -6.203125 C 13.300781 -6.929688 13.390625 -7.976562 13.390625 -9.34375 C 13.390625 -11.0625 13.296875 -12.367188 13.109375 -13.265625 C 12.921875 -14.171875 12.597656 -14.800781 12.140625 -15.15625 C 11.691406 -15.507812 11.03125 -15.6875 10.15625 -15.6875 Z M 10.15625 -15.6875 "/></g></g></g><g fill="#0e4f55" fill-opacity="1"><g transform="translate(243.396845, 344.087016)"><g><path d="M 11.53125 -20.375 C 13.820312 -20.375 15.578125 -19.8125 16.796875 -18.6875 C 18.023438 -17.5625 18.640625 -15.960938 18.640625 -13.890625 C 18.640625 -12.273438 18.257812 -10.851562 17.5 -9.625 C 16.75 -8.40625 15.679688 -7.453125 14.296875 -6.765625 C 12.921875 -6.085938 11.332031 -5.75 9.53125 -5.75 L 7.984375 -5.75 L 8.203125 0 L 1.890625 0 L 2.203125 -5.96875 L 1.890625 -20.34375 Z M 10.40625 -10.15625 C 10.96875 -10.46875 11.378906 -10.867188 11.640625 -11.359375 C 11.910156 -11.859375 12.046875 -12.492188 12.046875 -13.265625 C 12.046875 -14.191406 11.820312 -14.867188 11.375 -15.296875 C 10.9375 -15.722656 10.25 -15.957031 9.3125 -16 L 8.171875 -15.90625 L 8.046875 -10.28125 Z M 10.40625 -10.15625 "/></g></g></g><g fill="#0e4f55" fill-opacity="1"><g transform="translate(266.754487, 344.087016)"><g><path d="M 7.953125 -6.609375 L 8.203125 0 L 1.890625 0 L 2.203125 -5.96875 L 1.890625 -20.34375 L 8.296875 -20.34375 Z M 7.953125 -6.609375 "/></g></g></g><g fill="#0e4f55" fill-opacity="1"><g transform="translate(127.78463, 356.749206)"><g><path d="M 5.5625 0 L 2.375 0 L 0.046875 -8.515625 L 2.71875 -8.515625 L 2.953125 -7.109375 L 3.953125 -2.359375 L 4.109375 -2.359375 L 5.3125 -6.953125 L 5.5625 -8.515625 L 8.140625 -8.515625 Z M 5.5625 0 "/></g></g></g><g fill="#0e4f55" fill-opacity="1"><g transform="translate(144.835612, 356.749206)"><g><path d="M 3.328125 -2.765625 L 3.4375 0 L 0.796875 0 L 0.921875 -2.5 L 0.796875 -8.515625 L 3.46875 -8.515625 Z M 3.328125 -2.765625 "/></g></g></g><g fill="#0e4f55" fill-opacity="1"><g transform="translate(158.100301, 356.749206)"><g><path d="M 5.5625 0 L 2.375 0 L 0.046875 -8.515625 L 2.71875 -8.515625 L 2.953125 -7.109375 L 3.953125 -2.359375 L 4.109375 -2.359375 L 5.3125 -6.953125 L 5.5625 -8.515625 L 8.140625 -8.515625 Z M 5.5625 0 "/></g></g></g><g fill="#0e4f55" fill-opacity="1"><g transform="translate(175.151284, 356.749206)"><g><path d="M 7.890625 -4.203125 L 7.875 -2.84375 C 7.875 -1.875 7.550781 -1.128906 6.90625 -0.609375 C 6.269531 -0.0976562 5.351562 0.15625 4.15625 0.15625 C 3.007812 0.15625 2.128906 -0.0976562 1.515625 -0.609375 C 0.910156 -1.128906 0.617188 -1.875 0.640625 -2.84375 L 0.6875 -4.203125 L 0.609375 -8.515625 L 3.25 -8.515625 L 3.125 -3.203125 C 3.125 -2.753906 3.210938 -2.425781 3.390625 -2.21875 C 3.566406 -2.019531 3.859375 -1.921875 4.265625 -1.921875 C 4.671875 -1.921875 4.96875 -2.019531 5.15625 -2.21875 C 5.34375 -2.425781 5.429688 -2.753906 5.421875 -3.203125 L 5.296875 -8.515625 L 7.984375 -8.515625 Z M 7.890625 -4.203125 "/></g></g></g><g fill="#0e4f55" fill-opacity="1"><g transform="translate(192.701846, 356.749206)"><g><path d="M 4.015625 -8.671875 C 4.847656 -8.671875 5.671875 -8.515625 6.484375 -8.203125 L 6.0625 -6.0625 L 5.703125 -5.90625 C 5.328125 -6.132812 4.957031 -6.3125 4.59375 -6.4375 C 4.238281 -6.570312 3.953125 -6.640625 3.734375 -6.640625 C 3.535156 -6.640625 3.375 -6.597656 3.25 -6.515625 C 3.132812 -6.441406 3.078125 -6.335938 3.078125 -6.203125 C 3.078125 -6.035156 3.164062 -5.894531 3.34375 -5.78125 C 3.53125 -5.664062 3.832031 -5.507812 4.25 -5.3125 C 4.738281 -5.09375 5.140625 -4.890625 5.453125 -4.703125 C 5.773438 -4.515625 6.050781 -4.253906 6.28125 -3.921875 C 6.519531 -3.597656 6.640625 -3.191406 6.640625 -2.703125 C 6.640625 -2.171875 6.492188 -1.6875 6.203125 -1.25 C 5.910156 -0.820312 5.488281 -0.476562 4.9375 -0.21875 C 4.394531 0.03125 3.765625 0.15625 3.046875 0.15625 C 2.148438 0.15625 1.210938 -0.0078125 0.234375 -0.34375 L 0.625 -2.625 L 0.875 -2.796875 C 1.28125 -2.484375 1.710938 -2.238281 2.171875 -2.0625 C 2.640625 -1.882812 3.023438 -1.796875 3.328125 -1.796875 C 3.578125 -1.796875 3.753906 -1.835938 3.859375 -1.921875 C 3.972656 -2.003906 4.03125 -2.101562 4.03125 -2.21875 C 4.03125 -2.40625 3.929688 -2.5625 3.734375 -2.6875 C 3.546875 -2.8125 3.242188 -2.96875 2.828125 -3.15625 C 2.347656 -3.363281 1.953125 -3.5625 1.640625 -3.75 C 1.328125 -3.9375 1.054688 -4.195312 0.828125 -4.53125 C 0.597656 -4.863281 0.484375 -5.269531 0.484375 -5.75 C 0.484375 -6.300781 0.628906 -6.796875 0.921875 -7.234375 C 1.222656 -7.679688 1.640625 -8.03125 2.171875 -8.28125 C 2.710938 -8.539062 3.328125 -8.671875 4.015625 -8.671875 Z M 4.015625 -8.671875 "/></g></g></g><g fill="#0e4f55" fill-opacity="1"><g transform="translate(208.609049, 356.749206)"><g><path d="M 4.484375 -8.671875 C 5.722656 -8.671875 6.679688 -8.300781 7.359375 -7.5625 C 8.035156 -6.832031 8.375 -5.800781 8.375 -4.46875 C 8.375 -3 8 -1.859375 7.25 -1.046875 C 6.507812 -0.242188 5.460938 0.15625 4.109375 0.15625 C 2.867188 0.15625 1.910156 -0.210938 1.234375 -0.953125 C 0.554688 -1.691406 0.21875 -2.742188 0.21875 -4.109375 C 0.21875 -5.554688 0.585938 -6.675781 1.328125 -7.46875 C 2.078125 -8.269531 3.128906 -8.671875 4.484375 -8.671875 Z M 4.25 -6.5625 C 3.90625 -6.5625 3.644531 -6.5 3.46875 -6.375 C 3.289062 -6.257812 3.164062 -6.050781 3.09375 -5.75 C 3.019531 -5.457031 2.984375 -5.023438 2.984375 -4.453125 C 2.984375 -3.734375 3.019531 -3.179688 3.09375 -2.796875 C 3.175781 -2.421875 3.3125 -2.160156 3.5 -2.015625 C 3.6875 -1.867188 3.96875 -1.796875 4.34375 -1.796875 C 4.6875 -1.796875 4.941406 -1.851562 5.109375 -1.96875 C 5.285156 -2.082031 5.410156 -2.289062 5.484375 -2.59375 C 5.566406 -2.894531 5.609375 -3.332031 5.609375 -3.90625 C 5.609375 -4.625 5.566406 -5.171875 5.484375 -5.546875 C 5.410156 -5.929688 5.273438 -6.195312 5.078125 -6.34375 C 4.890625 -6.488281 4.613281 -6.5625 4.25 -6.5625 Z M 4.25 -6.5625 "/></g></g></g><g fill="#0e4f55" fill-opacity="1"><g transform="translate(226.159608, 356.749206)"><g><path d="M 4.828125 -8.53125 C 5.785156 -8.53125 6.519531 -8.296875 7.03125 -7.828125 C 7.539062 -7.359375 7.796875 -6.6875 7.796875 -5.8125 C 7.796875 -5.132812 7.640625 -4.539062 7.328125 -4.03125 C 7.015625 -3.519531 6.566406 -3.117188 5.984375 -2.828125 C 5.410156 -2.546875 4.742188 -2.40625 3.984375 -2.40625 L 3.34375 -2.40625 L 3.4375 0 L 0.796875 0 L 0.921875 -2.5 L 0.796875 -8.515625 Z M 4.359375 -4.25 C 4.585938 -4.382812 4.753906 -4.550781 4.859375 -4.75 C 4.972656 -4.957031 5.03125 -5.222656 5.03125 -5.546875 C 5.03125 -5.929688 4.9375 -6.210938 4.75 -6.390625 C 4.570312 -6.578125 4.285156 -6.679688 3.890625 -6.703125 L 3.421875 -6.65625 L 3.375 -4.296875 Z M 4.359375 -4.25 "/></g></g></g><g fill="#0e4f55" fill-opacity="1"><g transform="translate(242.921356, 356.749206)"><g><path d="M 3.328125 -2.765625 L 3.4375 0 L 0.796875 0 L 0.921875 -2.5 L 0.796875 -8.515625 L 3.46875 -8.515625 Z M 3.328125 -2.765625 "/></g></g></g><path fill="#34b982" d="M 281.230469 251.660156 C 281.230469 251.660156 222.632812 255.378906 200.359375 312.195312 C 200.359375 312.203125 266.109375 300.253906 281.230469 251.660156 Z M 281.230469 251.660156 " fill-opacity="1" fill-rule="nonzero"/><path fill="#34b982" d="M 288.191406 239.976562 C 288.191406 239.976562 182.59375 196.957031 144.941406 304.503906 C 144.941406 304.503906 160.320312 310.613281 176.496094 312.207031 C 176.496094 312.207031 209.109375 238.617188 287.0625 245.804688 Z M 288.191406 239.976562 " fill-opacity="1" fill-rule="nonzero"/><path fill="#34b982" d="M 291.082031 226.414062 C 291.082031 226.414062 200.027344 157.523438 92.34375 252.324219 C 92.34375 252.324219 102.734375 279.351562 124.191406 289.367188 C 124.191406 289.367188 149.183594 220.058594 214.148438 213.683594 C 255.800781 209.359375 291.082031 232.007812 291.082031 232.007812 Z M 291.082031 226.414062 " fill-opacity="1" fill-rule="nonzero"/><path fill="#34b982" d="M 233.886719 106.226562 C 233.886719 106.226562 244.175781 79.847656 269.632812 71.683594 C 269.632812 71.683594 273.808594 102.355469 239.003906 120.078125 L 231.25 114.929688 C 231.25 114.929688 233.457031 108.753906 233.886719 106.226562 Z M 233.886719 106.226562 " fill-opacity="1" fill-rule="nonzero"/><path fill="#34b982" d="M 276.546875 142.953125 C 276.546875 142.953125 306.03125 111.714844 348.382812 115.894531 C 348.382812 115.894531 332.835938 162.5 275.378906 164.890625 C 275.378906 164.890625 270.140625 154.675781 276.546875 142.953125 Z M 276.546875 142.953125 " fill-opacity="1" fill-rule="nonzero"/><path fill="#34b982" d="M 187.398438 24.480469 C 169.601562 44.59375 177.246094 90.777344 177.246094 90.777344 C 180.113281 103.894531 187.398438 105.144531 187.398438 105.144531 C 187.398438 105.144531 194.683594 103.894531 197.554688 90.777344 C 197.554688 90.777344 205.199219 44.59375 187.398438 24.480469 Z M 187.398438 24.480469 " fill-opacity="1" fill-rule="nonzero"/><path fill="#34b982" d="M 140.914062 106.226562 C 140.914062 106.226562 130.625 79.847656 105.167969 71.683594 C 105.167969 71.683594 100.996094 102.355469 135.796875 120.078125 L 143.550781 114.929688 C 143.550781 114.929688 141.34375 108.753906 140.914062 106.226562 Z M 140.914062 106.226562 " fill-opacity="1" fill-rule="nonzero"/><path fill="#34b982" d="M 98.253906 142.953125 C 98.253906 142.953125 68.777344 111.714844 26.417969 115.894531 C 26.417969 115.894531 41.964844 162.5 99.421875 164.890625 C 99.421875 164.890625 104.660156 154.675781 98.253906 142.953125 Z M 98.253906 142.953125 " fill-opacity="1" fill-rule="nonzero"/><path fill="#edb46a" d="M 277.785156 157.921875 C 277.78125 165.15625 276.929688 172.289062 275.222656 179.320312 C 273.519531 186.347656 271.011719 193.078125 267.699219 199.507812 C 267.089844 200.6875 266.457031 201.855469 265.792969 203 C 254.480469 198.539062 241.84375 195.015625 228.269531 192.644531 L 223.394531 147.832031 L 187.398438 132.691406 L 149.445312 148.886719 L 145.9375 192.742188 C 132.585938 195.113281 120.15625 198.601562 109.007812 203 C 108.34375 201.855469 107.707031 200.691406 107.097656 199.507812 C 103.789062 193.078125 101.277344 186.347656 99.574219 179.320312 C 97.871094 172.289062 97.015625 165.15625 97.015625 157.921875 C 97.015625 153.132812 97.386719 148.375 98.132812 143.640625 C 98.367188 143.730469 98.589844 143.820312 98.804688 143.902344 C 98.617188 143.585938 98.445312 143.273438 98.238281 142.957031 C 98.84375 139.285156 99.679688 135.667969 100.746094 132.105469 C 103.265625 123.589844 106.96875 115.628906 111.851562 108.214844 C 113.390625 105.871094 115.035156 103.601562 116.78125 101.414062 C 120.304688 106.242188 124.582031 110.269531 129.605469 113.496094 C 127.894531 108.753906 125.320312 101.753906 122.625 94.800781 C 123.753906 93.625 124.921875 92.484375 126.132812 91.382812 C 131.554688 96.976562 137.15625 102.542969 140.90625 106.234375 C 139.914062 99.300781 137.53125 92.890625 133.75 87 C 133.472656 86.570312 133.183594 86.136719 132.890625 85.714844 C 135.027344 84.09375 137.238281 82.5625 139.523438 81.144531 C 146.757812 76.601562 154.484375 73.164062 162.699219 70.828125 C 165.285156 70.105469 167.90625 69.476562 170.582031 68.984375 C 171.597656 76.621094 173.820312 83.886719 177.25 90.785156 C 178.496094 85.355469 180.410156 76.777344 182.359375 67.546875 C 184.023438 67.445312 185.707031 67.402344 187.398438 67.402344 C 189.09375 67.402344 190.773438 67.445312 192.445312 67.546875 C 194.398438 76.785156 196.3125 85.34375 197.554688 90.777344 C 200.976562 83.875 203.195312 76.601562 204.207031 68.960938 C 206.882812 69.457031 209.503906 70.082031 212.085938 70.808594 C 220.304688 73.140625 228.03125 76.582031 235.265625 81.125 C 237.558594 82.550781 239.769531 84.078125 241.90625 85.707031 C 241.601562 86.125 241.324219 86.546875 241.046875 86.976562 C 237.265625 92.871094 234.882812 99.28125 233.890625 106.214844 C 237.65625 102.519531 243.25 96.957031 248.664062 91.363281 C 249.875 92.464844 251.046875 93.613281 252.183594 94.789062 C 249.492188 101.742188 246.910156 108.742188 245.203125 113.480469 C 250.222656 110.257812 254.492188 106.234375 258.011719 101.414062 C 259.757812 103.601562 261.414062 105.878906 262.941406 108.226562 C 267.828125 115.636719 271.53125 123.597656 274.050781 132.109375 C 275.113281 135.671875 275.945312 139.285156 276.550781 142.953125 C 276.359375 143.269531 276.171875 143.582031 275.984375 143.898438 C 276.199219 143.816406 276.421875 143.726562 276.65625 143.640625 C 277.40625 148.371094 277.78125 153.132812 277.785156 157.921875 Z M 277.785156 157.921875 " fill-opacity="1" fill-rule="nonzero"/><g clip-path="url(#25d2b449ee)"><path fill="#0e4f55" d="M 295.355469 213.667969 C 286.53125 208.171875 277.3125 203.453125 267.695312 199.507812 C 256.019531 194.699219 243.996094 191.027344 231.625 188.492188 L 228.714844 157.714844 L 236.511719 164.464844 C 236.910156 164.808594 237.339844 165.113281 237.800781 165.375 C 238.261719 165.636719 238.742188 165.851562 239.242188 166.015625 C 239.746094 166.183594 240.257812 166.300781 240.78125 166.363281 C 241.308594 166.429688 241.832031 166.441406 242.359375 166.402344 C 242.886719 166.363281 243.40625 166.273438 243.914062 166.132812 C 244.425781 165.992188 244.914062 165.804688 245.386719 165.566406 C 245.859375 165.328125 246.304688 165.046875 246.722656 164.71875 C 247.140625 164.394531 247.519531 164.03125 247.863281 163.628906 L 225.894531 144.613281 L 187.398438 128.867188 L 148.910156 144.613281 L 126.929688 163.632812 C 127.277344 164.03125 127.65625 164.394531 128.074219 164.722656 C 128.492188 165.046875 128.9375 165.328125 129.40625 165.566406 C 129.878906 165.804688 130.371094 165.992188 130.878906 166.132812 C 131.390625 166.273438 131.90625 166.363281 132.433594 166.402344 C 132.960938 166.4375 133.488281 166.425781 134.011719 166.359375 C 134.535156 166.292969 135.046875 166.179688 135.550781 166.011719 C 136.050781 165.84375 136.53125 165.628906 136.992188 165.367188 C 137.449219 165.105469 137.878906 164.804688 138.277344 164.457031 L 146.082031 157.710938 L 143.164062 188.484375 C 130.792969 191.019531 118.769531 194.691406 107.09375 199.5 C 97.480469 203.445312 88.261719 208.167969 79.441406 213.660156 C 78.945312 213.964844 78.484375 214.3125 78.046875 214.695312 C 77.613281 215.078125 77.210938 215.496094 76.84375 215.945312 C 76.476562 216.394531 76.152344 216.871094 75.863281 217.378906 C 75.578125 217.882812 75.332031 218.40625 75.132812 218.953125 C 74.933594 219.496094 74.78125 220.054688 74.675781 220.625 C 74.566406 221.195312 74.507812 221.773438 74.496094 222.351562 C 74.484375 222.933594 74.523438 223.511719 74.605469 224.085938 C 74.691406 224.660156 74.824219 225.222656 75 225.777344 C 83.476562 252.152344 98.941406 275.410156 118.644531 291.59375 L 118.644531 291.621094 L 120.839844 293.378906 C 121.214844 293.679688 121.617188 293.988281 121.992188 294.273438 C 134.664062 303.953125 148.589844 310.644531 163.382812 314.167969 C 165.414062 314.652344 167.472656 315.066406 169.539062 315.433594 L 169.484375 315.566406 L 174.871094 316.230469 C 179.03125 316.734375 183.210938 316.988281 187.402344 316.984375 C 224.484375 316.984375 258.910156 297.339844 281.863281 263.09375 C 284.234375 259.554688 286.457031 255.882812 288.503906 252.144531 C 289.183594 250.886719 289.847656 249.628906 290.492188 248.371094 L 293.1875 243.066406 L 293.058594 243.066406 C 293.453125 242.222656 293.847656 241.378906 294.214844 240.539062 C 295.15625 238.371094 296.066406 236.171875 296.910156 234.015625 L 298.0625 231.023438 L 298.019531 230.984375 C 298.636719 229.273438 299.234375 227.542969 299.789062 225.804688 L 299.800781 225.804688 C 299.976562 225.25 300.109375 224.6875 300.195312 224.113281 C 300.28125 223.535156 300.316406 222.957031 300.304688 222.375 C 300.292969 221.792969 300.234375 221.21875 300.128906 220.644531 C 300.023438 220.074219 299.867188 219.515625 299.667969 218.96875 C 299.46875 218.421875 299.226562 217.898438 298.9375 217.390625 C 298.648438 216.886719 298.324219 216.40625 297.957031 215.957031 C 297.589844 215.503906 297.1875 215.089844 296.75 214.703125 C 296.316406 214.320312 295.851562 213.976562 295.355469 213.667969 Z M 154.65625 152.714844 C 154.707031 152.160156 154.898438 151.65625 155.230469 151.207031 C 155.5625 150.757812 155.988281 150.425781 156.507812 150.214844 L 186.257812 138.042969 C 187.015625 137.734375 187.773438 137.734375 188.53125 138.042969 L 218.296875 150.214844 C 218.8125 150.425781 219.238281 150.757812 219.570312 151.207031 C 219.902344 151.65625 220.09375 152.160156 220.148438 152.714844 L 223.074219 183.652344 C 223.089844 183.847656 223.089844 184.042969 223.0625 184.238281 C 223.035156 184.433594 222.988281 184.621094 222.917969 184.804688 C 222.847656 184.988281 222.761719 185.164062 222.652344 185.324219 C 222.542969 185.488281 222.417969 185.636719 222.273438 185.773438 C 222.132812 185.90625 221.976562 186.023438 221.804688 186.121094 C 221.636719 186.222656 221.457031 186.300781 221.269531 186.359375 C 221.082031 186.414062 220.890625 186.449219 220.695312 186.464844 C 220.5 186.480469 220.304688 186.472656 220.109375 186.441406 C 198.300781 183.21875 176.488281 183.21875 154.679688 186.441406 C 154.484375 186.472656 154.289062 186.480469 154.09375 186.464844 C 153.898438 186.449219 153.707031 186.414062 153.519531 186.359375 C 153.332031 186.300781 153.152344 186.222656 152.984375 186.121094 C 152.816406 186.023438 152.660156 185.90625 152.515625 185.773438 C 152.371094 185.636719 152.246094 185.488281 152.136719 185.328125 C 152.027344 185.164062 151.941406 184.988281 151.871094 184.804688 C 151.800781 184.621094 151.753906 184.433594 151.726562 184.238281 C 151.703125 184.042969 151.699219 183.847656 151.714844 183.652344 Z M 279.984375 250.835938 C 279.453125 251.75 278.917969 252.652344 278.363281 253.558594 L 277.640625 254.769531 C 276.832031 256.058594 276.011719 257.339844 275.167969 258.597656 C 259.105469 282.578125 237.09375 298.898438 212.589844 305.554688 C 211.570312 305.832031 210.550781 306.09375 209.519531 306.34375 C 207.460938 306.828125 205.375 307.25 203.304688 307.597656 C 198.042969 308.480469 192.742188 308.921875 187.402344 308.917969 C 186.417969 308.917969 185.441406 308.902344 184.46875 308.875 C 184.101562 308.875 183.734375 308.835938 183.367188 308.820312 C 182.75 308.800781 182.140625 308.773438 181.53125 308.738281 L 181.476562 308.738281 C 182.589844 306.550781 183.773438 304.398438 185.03125 302.289062 C 186.292969 300.179688 187.621094 298.117188 189.023438 296.101562 C 190.425781 294.082031 191.890625 292.117188 193.429688 290.199219 C 194.964844 288.285156 196.5625 286.421875 198.226562 284.617188 C 199.890625 282.808594 201.613281 281.0625 203.398438 279.375 C 205.183594 277.6875 207.023438 276.066406 208.917969 274.503906 C 210.8125 272.945312 212.757812 271.449219 214.757812 270.023438 C 216.753906 268.597656 218.800781 267.242188 220.890625 265.957031 C 222.980469 264.671875 225.113281 263.457031 227.289062 262.320312 C 229.460938 261.179688 231.671875 260.117188 233.921875 259.132812 C 236.167969 258.144531 238.445312 257.238281 240.753906 256.40625 C 243.066406 255.578125 245.398438 254.828125 247.761719 254.160156 C 250.121094 253.492188 252.503906 252.90625 254.90625 252.402344 C 257.304688 251.898438 259.722656 251.476562 262.152344 251.136719 C 264.582031 250.800781 267.019531 250.546875 269.46875 250.375 C 271.917969 250.203125 274.367188 250.117188 276.820312 250.117188 C 278 250.117188 279.183594 250.132812 280.363281 250.179688 C 280.234375 250.394531 280.109375 250.609375 279.984375 250.835938 Z M 288.179688 234.121094 C 287.742188 235.179688 287.296875 236.234375 286.839844 237.28125 C 286.097656 238.980469 285.308594 240.644531 284.503906 242.308594 C 281.960938 242.140625 279.382812 242.050781 276.816406 242.050781 C 232.378906 242.050781 191.953125 267.773438 172.964844 307.824219 C 170.371094 307.421875 167.78125 306.929688 165.242188 306.316406 C 164.402344 306.128906 163.558594 305.902344 162.726562 305.679688 L 162.03125 305.492188 C 161.429688 305.324219 160.824219 305.160156 160.222656 304.980469 L 159.363281 304.710938 C 158.816406 304.550781 158.28125 304.382812 157.742188 304.210938 C 157.441406 304.113281 157.125 304.003906 156.824219 303.898438 C 156.304688 303.726562 155.792969 303.554688 155.28125 303.375 C 154.960938 303.261719 154.636719 303.144531 154.316406 303.019531 C 153.824219 302.828125 153.332031 302.660156 152.847656 302.472656 C 152.507812 302.347656 152.175781 302.210938 151.847656 302.078125 L 150.425781 301.511719 C 150.09375 301.367188 149.753906 301.222656 149.414062 301.070312 C 148.949219 300.882812 148.492188 300.675781 148.023438 300.46875 C 147.683594 300.320312 147.34375 300.167969 147.003906 300.003906 C 146.558594 299.796875 146.101562 299.59375 145.65625 299.378906 C 145.304688 299.214844 144.964844 299.046875 144.625 298.875 C 144.175781 298.660156 143.738281 298.4375 143.304688 298.210938 C 142.957031 298.042969 142.609375 297.855469 142.265625 297.675781 C 141.832031 297.449219 141.398438 297.226562 140.96875 296.996094 C 140.621094 296.804688 140.273438 296.617188 139.933594 296.410156 C 139.503906 296.179688 139.082031 295.945312 138.660156 295.703125 C 138.3125 295.496094 137.964844 295.292969 137.613281 295.09375 C 137.203125 294.84375 136.792969 294.59375 136.371094 294.339844 C 136.019531 294.132812 135.683594 293.917969 135.332031 293.695312 C 134.921875 293.445312 134.519531 293.183594 134.117188 292.921875 C 133.765625 292.699219 133.417969 292.472656 133.070312 292.242188 C 132.664062 291.980469 132.273438 291.710938 131.878906 291.445312 C 131.53125 291.210938 131.179688 290.96875 130.820312 290.71875 C 130.464844 290.46875 130.050781 290.179688 129.667969 289.902344 C 129.320312 289.652344 128.960938 289.398438 128.609375 289.148438 C 128.453125 289.023438 128.289062 288.90625 128.121094 288.78125 C 128.808594 286.878906 129.550781 284.996094 130.34375 283.136719 C 131.140625 281.273438 131.984375 279.4375 132.878906 277.621094 C 133.777344 275.808594 134.722656 274.023438 135.71875 272.261719 C 136.71875 270.5 137.761719 268.769531 138.855469 267.066406 C 139.949219 265.363281 141.085938 263.691406 142.273438 262.054688 C 143.460938 260.414062 144.691406 258.8125 145.96875 257.242188 C 147.242188 255.671875 148.5625 254.140625 149.921875 252.644531 C 151.285156 251.148438 152.6875 249.691406 154.128906 248.273438 C 155.574219 246.855469 157.054688 245.480469 158.574219 244.144531 C 160.09375 242.8125 161.648438 241.519531 163.238281 240.273438 C 164.832031 239.027344 166.457031 237.824219 168.113281 236.667969 C 169.773438 235.511719 171.464844 234.402344 173.183594 233.339844 C 174.90625 232.277344 176.652344 231.265625 178.429688 230.300781 C 180.207031 229.335938 182.011719 228.425781 183.839844 227.5625 C 185.667969 226.699219 187.515625 225.886719 189.390625 225.128906 C 191.265625 224.367188 193.15625 223.660156 195.070312 223.007812 C 196.984375 222.355469 198.914062 221.753906 200.859375 221.210938 C 202.804688 220.664062 204.765625 220.175781 206.738281 219.738281 C 208.710938 219.304688 210.695312 218.921875 212.691406 218.597656 C 214.6875 218.273438 216.6875 218.003906 218.699219 217.792969 C 220.707031 217.582031 222.722656 217.425781 224.742188 217.324219 C 226.757812 217.226562 228.777344 217.183594 230.800781 217.195312 C 232.820312 217.207031 234.839844 217.277344 236.855469 217.40625 C 238.875 217.53125 240.886719 217.714844 242.894531 217.953125 C 244.898438 218.191406 246.898438 218.488281 248.890625 218.839844 C 250.878906 219.1875 252.859375 219.59375 254.824219 220.058594 C 256.792969 220.519531 258.746094 221.035156 260.6875 221.605469 C 262.625 222.175781 264.546875 222.800781 266.449219 223.480469 C 268.355469 224.160156 270.238281 224.890625 272.101562 225.675781 C 273.964844 226.460938 275.804688 227.292969 277.621094 228.183594 C 279.4375 229.070312 281.226562 230.007812 282.992188 230.992188 C 284.757812 231.980469 286.492188 233.015625 288.199219 234.101562 C 288.1875 234.105469 288.183594 234.109375 288.179688 234.121094 Z M 292.136719 223.320312 C 291.792969 224.359375 291.445312 225.390625 291.089844 226.414062 C 289.277344 225.296875 287.4375 224.234375 285.570312 223.21875 C 283.703125 222.203125 281.808594 221.242188 279.886719 220.332031 C 277.964844 219.421875 276.019531 218.566406 274.054688 217.761719 C 272.085938 216.957031 270.097656 216.207031 268.089844 215.511719 C 266.082031 214.816406 264.054688 214.179688 262.011719 213.59375 C 259.964844 213.011719 257.910156 212.484375 255.835938 212.011719 C 253.761719 211.542969 251.679688 211.128906 249.585938 210.773438 C 247.488281 210.414062 245.386719 210.117188 243.273438 209.875 C 241.164062 209.632812 239.046875 209.449219 236.925781 209.324219 C 234.804688 209.199219 232.679688 209.132812 230.554688 209.125 C 228.429688 209.113281 226.308594 209.164062 224.183594 209.273438 C 222.0625 209.378906 219.945312 209.546875 217.832031 209.769531 C 215.71875 209.992188 213.613281 210.273438 211.515625 210.613281 C 209.414062 210.953125 207.328125 211.347656 205.253906 211.800781 C 203.175781 212.253906 201.113281 212.765625 199.066406 213.332031 C 197.015625 213.898438 194.984375 214.519531 192.972656 215.199219 C 190.957031 215.875 188.960938 216.609375 186.988281 217.394531 C 185.011719 218.183594 183.0625 219.023438 181.132812 219.917969 C 179.203125 220.8125 177.300781 221.757812 175.425781 222.757812 C 173.546875 223.753906 171.699219 224.804688 169.882812 225.90625 C 168.0625 227.003906 166.273438 228.152344 164.515625 229.351562 C 162.761719 230.550781 161.039062 231.792969 159.347656 233.085938 C 157.660156 234.378906 156.007812 235.714844 154.394531 237.097656 C 152.777344 238.480469 151.203125 239.90625 149.664062 241.378906 C 148.125 242.847656 146.628906 244.355469 145.175781 245.910156 C 143.71875 247.460938 142.308594 249.050781 140.941406 250.679688 C 139.574219 252.308594 138.25 253.972656 136.972656 255.671875 C 135.695312 257.375 134.464844 259.109375 133.285156 260.878906 C 132.101562 262.644531 130.96875 264.445312 129.886719 266.277344 C 128.800781 268.105469 127.769531 269.964844 126.785156 271.855469 C 125.804688 273.742188 124.875 275.652344 123.996094 277.59375 C 123.117188 279.53125 122.292969 281.492188 121.523438 283.476562 C 104.054688 268.347656 90.355469 247.203125 82.675781 223.316406 C 82.597656 223.058594 82.5625 222.792969 82.570312 222.523438 C 82.578125 222.253906 82.628906 221.996094 82.722656 221.742188 C 82.816406 221.488281 82.949219 221.257812 83.121094 221.050781 C 83.289062 220.839844 83.488281 220.664062 83.714844 220.519531 C 113.527344 201.925781 149.382812 192.109375 187.398438 192.109375 C 225.414062 192.109375 261.273438 201.929688 291.097656 220.519531 C 291.328125 220.660156 291.527344 220.835938 291.699219 221.046875 C 291.867188 221.257812 292 221.488281 292.09375 221.742188 C 292.1875 221.996094 292.238281 222.257812 292.242188 222.527344 C 292.25 222.796875 292.210938 223.0625 292.128906 223.320312 Z M 292.136719 223.320312 " fill-opacity="1" fill-rule="nonzero"/></g><g clip-path="url(#16bb6f5fe7)"><path fill="#0e4f55" d="M 191.898438 6.207031 C 191.613281 5.898438 191.296875 5.621094 190.949219 5.375 C 190.605469 5.132812 190.238281 4.925781 189.851562 4.757812 C 189.464844 4.589844 189.066406 4.460938 188.652344 4.375 C 188.238281 4.289062 187.820312 4.246094 187.398438 4.246094 C 186.976562 4.246094 186.558594 4.289062 186.144531 4.375 C 185.730469 4.460938 185.332031 4.589844 184.945312 4.757812 C 184.558594 4.925781 184.191406 5.132812 183.847656 5.375 C 183.5 5.621094 183.183594 5.898438 182.898438 6.207031 C 182.0625 7.101562 181.25 8.015625 180.460938 8.949219 C 179.667969 9.882812 178.902344 10.835938 178.15625 11.804688 C 177.410156 12.773438 176.6875 13.757812 175.984375 14.761719 C 175.285156 15.765625 174.609375 16.785156 173.957031 17.820312 C 173.304688 18.855469 172.675781 19.90625 172.074219 20.96875 C 171.472656 22.035156 170.894531 23.113281 170.339844 24.203125 C 169.789062 25.296875 169.261719 26.402344 168.761719 27.515625 C 168.261719 28.632812 167.785156 29.761719 167.335938 30.902344 C 166.890625 32.039062 166.46875 33.1875 166.074219 34.347656 C 165.679688 35.503906 165.3125 36.671875 164.972656 37.847656 C 164.632812 39.023438 164.324219 40.207031 164.039062 41.398438 C 163.753906 42.589844 163.5 43.785156 163.269531 44.988281 C 163.042969 46.191406 162.84375 47.398438 162.671875 48.609375 C 162.5 49.820312 162.355469 51.035156 162.242188 52.253906 C 162.128906 53.472656 162.042969 54.695312 161.984375 55.917969 C 161.925781 57.140625 161.898438 58.363281 161.898438 59.585938 C 161.898438 60.8125 161.925781 62.035156 161.984375 63.257812 C 162.042969 64.480469 162.128906 65.699219 162.242188 66.917969 C 162.355469 68.136719 162.5 69.351562 162.671875 70.566406 C 162.84375 71.777344 163.042969 72.984375 163.269531 74.1875 C 163.5 75.390625 163.753906 76.585938 164.039062 77.777344 C 164.324219 78.964844 164.632812 80.148438 164.972656 81.324219 C 165.3125 82.5 165.679688 83.667969 166.074219 84.828125 C 166.46875 85.984375 166.890625 87.136719 167.335938 88.273438 C 167.785156 89.414062 168.261719 90.539062 168.761719 91.65625 C 169.261719 92.773438 169.789062 93.878906 170.339844 94.96875 C 170.894531 96.0625 171.472656 97.140625 172.074219 98.203125 C 172.675781 99.269531 173.304688 100.320312 173.957031 101.355469 C 174.609375 102.390625 175.285156 103.40625 175.984375 104.410156 C 176.6875 105.414062 177.410156 106.402344 178.15625 107.371094 C 178.902344 108.339844 179.667969 109.292969 180.460938 110.222656 C 181.25 111.15625 182.0625 112.070312 182.898438 112.96875 C 183.183594 113.277344 183.5 113.554688 183.84375 113.796875 C 184.191406 114.042969 184.554688 114.25 184.945312 114.417969 C 185.332031 114.585938 185.730469 114.714844 186.144531 114.800781 C 186.558594 114.886719 186.976562 114.929688 187.398438 114.929688 C 187.820312 114.929688 188.238281 114.886719 188.652344 114.800781 C 189.066406 114.714844 189.464844 114.585938 189.851562 114.417969 C 190.242188 114.25 190.605469 114.042969 190.953125 113.796875 C 191.296875 113.554688 191.613281 113.277344 191.898438 112.96875 C 192.734375 112.070312 193.546875 111.15625 194.335938 110.222656 C 195.125 109.289062 195.894531 108.339844 196.640625 107.371094 C 197.386719 106.402344 198.109375 105.414062 198.808594 104.410156 C 199.507812 103.40625 200.1875 102.386719 200.835938 101.351562 C 201.488281 100.316406 202.117188 99.269531 202.71875 98.203125 C 203.324219 97.136719 203.902344 96.058594 204.453125 94.96875 C 205.007812 93.875 205.53125 92.773438 206.03125 91.65625 C 206.535156 90.539062 207.007812 89.410156 207.457031 88.273438 C 207.902344 87.132812 208.324219 85.984375 208.71875 84.828125 C 209.113281 83.667969 209.480469 82.5 209.820312 81.324219 C 210.160156 80.148438 210.46875 78.964844 210.753906 77.777344 C 211.039062 76.585938 211.292969 75.390625 211.523438 74.1875 C 211.75 72.984375 211.949219 71.777344 212.121094 70.566406 C 212.292969 69.351562 212.4375 68.136719 212.550781 66.917969 C 212.664062 65.699219 212.75 64.480469 212.808594 63.257812 C 212.863281 62.035156 212.894531 60.8125 212.894531 59.585938 C 212.894531 58.363281 212.863281 57.140625 212.808594 55.917969 C 212.75 54.695312 212.664062 53.472656 212.550781 52.253906 C 212.4375 51.035156 212.292969 49.820312 212.121094 48.609375 C 211.949219 47.398438 211.75 46.191406 211.523438 44.988281 C 211.292969 43.785156 211.039062 42.589844 210.753906 41.398438 C 210.46875 40.207031 210.160156 39.023438 209.820312 37.847656 C 209.480469 36.671875 209.113281 35.507812 208.71875 34.347656 C 208.324219 33.1875 207.902344 32.039062 207.457031 30.902344 C 207.007812 29.761719 206.535156 28.636719 206.03125 27.519531 C 205.53125 26.402344 205.007812 25.296875 204.453125 24.207031 C 203.902344 23.113281 203.324219 22.035156 202.71875 20.972656 C 202.117188 19.90625 201.488281 18.855469 200.835938 17.820312 C 200.1875 16.785156 199.507812 15.765625 198.808594 14.761719 C 198.109375 13.761719 197.386719 12.773438 196.640625 11.804688 C 195.894531 10.835938 195.125 9.882812 194.335938 8.949219 C 193.546875 8.015625 192.734375 7.101562 191.898438 6.207031 Z M 197.550781 90.777344 C 196.304688 85.34375 194.390625 76.777344 192.4375 67.546875 C 191.105469 61.191406 189.742188 54.523438 188.597656 48.347656 C 188.347656 47.011719 186.441406 47.011719 186.191406 48.347656 C 185.039062 54.515625 183.6875 61.191406 182.351562 67.546875 C 180.402344 76.785156 178.488281 85.355469 177.242188 90.785156 C 176.476562 89.238281 175.769531 87.660156 175.117188 86.058594 C 174.46875 84.457031 173.878906 82.835938 173.347656 81.191406 C 172.816406 79.546875 172.347656 77.882812 171.9375 76.203125 C 171.53125 74.523438 171.183594 72.832031 170.902344 71.125 C 170.617188 69.417969 170.398438 67.707031 170.242188 65.984375 C 170.085938 64.261719 169.992188 62.539062 169.960938 60.808594 C 169.933594 59.082031 169.96875 57.355469 170.066406 55.628906 C 170.164062 53.902344 170.324219 52.183594 170.546875 50.46875 C 170.773438 48.753906 171.058594 47.050781 171.410156 45.359375 C 171.761719 43.664062 172.171875 41.988281 172.644531 40.324219 C 173.121094 38.664062 173.652344 37.019531 174.25 35.398438 C 174.84375 33.773438 175.496094 32.175781 176.210938 30.601562 C 176.921875 29.027344 177.691406 27.480469 178.519531 25.960938 C 179.347656 24.445312 180.226562 22.960938 181.164062 21.507812 C 182.101562 20.054688 183.089844 18.640625 184.128906 17.261719 C 185.171875 15.882812 186.261719 14.542969 187.398438 13.242188 C 188.539062 14.542969 189.625 15.882812 190.664062 17.261719 C 191.707031 18.640625 192.691406 20.058594 193.628906 21.507812 C 194.5625 22.960938 195.445312 24.445312 196.269531 25.964844 C 197.09375 27.480469 197.863281 29.027344 198.574219 30.601562 C 199.289062 32.175781 199.941406 33.773438 200.535156 35.398438 C 201.128906 37.019531 201.664062 38.664062 202.136719 40.324219 C 202.609375 41.988281 203.023438 43.664062 203.371094 45.355469 C 203.722656 47.046875 204.007812 48.75 204.234375 50.464844 C 204.457031 52.179688 204.621094 53.898438 204.71875 55.625 C 204.816406 57.347656 204.847656 59.074219 204.820312 60.804688 C 204.789062 62.53125 204.699219 64.257812 204.542969 65.976562 C 204.386719 67.699219 204.164062 69.414062 203.882812 71.117188 C 203.601562 72.820312 203.257812 74.515625 202.847656 76.195312 C 202.441406 77.875 201.972656 79.535156 201.445312 81.179688 C 200.914062 82.824219 200.324219 84.449219 199.675781 86.050781 C 199.027344 87.652344 198.320312 89.226562 197.554688 90.777344 Z M 197.550781 90.777344 " fill-opacity="1" fill-rule="nonzero"/></g><g clip-path="url(#2775da30b6)"><path fill="#0e4f55" d="M 353.292969 103.890625 C 352.8125 103.183594 352.214844 102.601562 351.492188 102.140625 C 350.773438 101.683594 349.992188 101.386719 349.152344 101.25 C 347.945312 101.058594 346.734375 100.894531 345.519531 100.761719 C 344.304688 100.625 343.085938 100.519531 341.867188 100.441406 C 340.644531 100.367188 339.425781 100.316406 338.203125 100.296875 C 336.980469 100.277344 335.757812 100.289062 334.539062 100.324219 C 333.316406 100.363281 332.09375 100.429688 330.875 100.523438 C 329.65625 100.621094 328.441406 100.742188 327.230469 100.894531 C 326.015625 101.046875 324.808594 101.230469 323.605469 101.4375 C 322.398438 101.648438 321.199219 101.882812 320.007812 102.148438 C 318.816406 102.414062 317.628906 102.707031 316.449219 103.03125 C 315.269531 103.351562 314.097656 103.699219 312.933594 104.074219 C 311.773438 104.453125 310.617188 104.855469 309.472656 105.285156 C 308.328125 105.714844 307.195312 106.171875 306.074219 106.65625 C 304.949219 107.140625 303.839844 107.652344 302.742188 108.1875 C 301.640625 108.722656 300.554688 109.285156 299.484375 109.871094 C 298.410156 110.457031 297.351562 111.070312 296.308594 111.707031 C 295.265625 112.34375 294.238281 113.003906 293.222656 113.691406 C 292.210938 114.375 291.214844 115.082031 290.234375 115.816406 C 289.253906 116.546875 288.292969 117.300781 287.347656 118.078125 C 286.402344 118.855469 285.480469 119.65625 284.570312 120.476562 C 283.664062 121.296875 282.777344 122.136719 281.910156 123 C 281.042969 123.863281 280.195312 124.746094 279.371094 125.648438 C 278.542969 126.550781 277.738281 127.46875 276.957031 128.410156 C 276.171875 129.351562 275.414062 130.308594 274.675781 131.285156 C 273.9375 132.261719 273.222656 133.253906 272.53125 134.261719 C 271.839844 135.269531 271.171875 136.296875 270.527344 137.335938 C 269.882812 138.378906 269.265625 139.433594 268.671875 140.503906 C 268.078125 141.574219 267.507812 142.65625 266.964844 143.753906 C 266.421875 144.847656 265.90625 145.957031 265.414062 147.078125 C 264.921875 148.199219 264.457031 149.332031 264.019531 150.472656 C 263.582031 151.617188 263.167969 152.769531 262.785156 153.929688 C 262.398438 155.09375 262.042969 156.261719 261.714844 157.441406 C 261.382812 158.621094 261.082031 159.808594 260.808594 161 C 260.714844 161.410156 260.664062 161.828125 260.652344 162.25 C 260.644531 162.671875 260.679688 163.089844 260.753906 163.507812 C 260.832031 163.921875 260.953125 164.324219 261.113281 164.714844 C 261.273438 165.105469 261.46875 165.476562 261.707031 165.828125 C 261.941406 166.175781 262.210938 166.5 262.515625 166.792969 C 262.816406 167.085938 263.148438 167.347656 263.503906 167.574219 C 263.859375 167.800781 264.234375 167.988281 264.628906 168.136719 C 265.023438 168.285156 265.429688 168.390625 265.847656 168.457031 C 269.5625 169.050781 273.296875 169.371094 277.058594 169.425781 C 277.417969 169.425781 277.773438 169.425781 278.132812 169.425781 C 280.320312 169.421875 282.503906 169.324219 284.6875 169.136719 C 286.867188 168.949219 289.035156 168.671875 291.191406 168.300781 C 293.347656 167.933594 295.488281 167.472656 297.605469 166.921875 C 299.722656 166.375 301.816406 165.734375 303.878906 165.011719 C 305.945312 164.285156 307.976562 163.472656 309.972656 162.578125 C 311.96875 161.679688 313.925781 160.703125 315.839844 159.640625 C 317.757812 158.582031 319.625 157.441406 321.441406 156.226562 C 323.261719 155.007812 325.027344 153.714844 326.738281 152.347656 C 328.449219 150.984375 330.101562 149.546875 331.691406 148.042969 C 333.28125 146.539062 334.808594 144.96875 336.265625 143.335938 C 337.726562 141.703125 339.113281 140.011719 340.429688 138.261719 C 341.75 136.511719 342.992188 134.707031 344.15625 132.851562 C 345.324219 131 346.410156 129.097656 347.417969 127.152344 C 348.421875 125.207031 349.347656 123.222656 350.1875 121.199219 C 351.027344 119.175781 351.78125 117.121094 352.449219 115.035156 C 353.121094 112.945312 353.699219 110.835938 354.191406 108.699219 C 354.375 107.871094 354.390625 107.039062 354.234375 106.203125 C 354.078125 105.367188 353.765625 104.59375 353.292969 103.890625 Z M 317.257812 149.335938 C 312.78125 152.371094 308.019531 154.847656 302.972656 156.777344 C 297.921875 158.703125 292.722656 160.027344 287.367188 160.746094 C 293.792969 153.863281 306.527344 140.378906 317.472656 129.566406 C 318.4375 128.625 317.375 127.03125 316.128906 127.578125 C 302.382812 133.554688 285.625 140.152344 276.671875 143.640625 C 276.441406 143.726562 276.214844 143.816406 276 143.898438 C 276.191406 143.585938 276.359375 143.269531 276.566406 142.953125 C 277.429688 141.484375 278.347656 140.046875 279.316406 138.644531 C 280.285156 137.238281 281.300781 135.875 282.371094 134.542969 C 283.4375 133.214844 284.554688 131.925781 285.714844 130.679688 C 286.875 129.433594 288.082031 128.230469 289.332031 127.070312 C 290.582031 125.910156 291.871094 124.796875 293.203125 123.730469 C 294.53125 122.667969 295.898438 121.652344 297.304688 120.683594 C 298.707031 119.71875 300.144531 118.804688 301.617188 117.945312 C 303.085938 117.085938 304.585938 116.277344 306.117188 115.527344 C 307.644531 114.777344 309.199219 114.082031 310.78125 113.445312 C 312.359375 112.808594 313.960938 112.230469 315.585938 111.707031 C 317.207031 111.1875 318.84375 110.726562 320.5 110.324219 C 322.15625 109.925781 323.824219 109.585938 325.503906 109.304688 C 327.1875 109.027344 328.875 108.808594 330.570312 108.652344 C 332.265625 108.496094 333.964844 108.402344 335.667969 108.371094 C 337.371094 108.339844 339.074219 108.371094 340.777344 108.460938 C 342.476562 108.554688 344.171875 108.710938 345.863281 108.925781 C 344.796875 113.019531 343.375 116.988281 341.589844 120.824219 C 339.808594 124.660156 337.695312 128.304688 335.25 131.757812 C 332.804688 135.207031 330.070312 138.410156 327.046875 141.363281 C 324.019531 144.320312 320.753906 146.976562 317.246094 149.335938 Z M 317.257812 149.335938 " fill-opacity="1" fill-rule="nonzero"/></g><path fill="#0e4f55" d="M 274.597656 63.609375 C 274.527344 63.1875 274.414062 62.777344 274.257812 62.378906 C 274.097656 61.976562 273.902344 61.601562 273.667969 61.242188 C 273.433594 60.882812 273.160156 60.554688 272.855469 60.253906 C 272.550781 59.949219 272.21875 59.683594 271.859375 59.453125 C 271.5 59.222656 271.121094 59.027344 270.71875 58.878906 C 270.316406 58.726562 269.90625 58.617188 269.484375 58.550781 C 269.058594 58.484375 268.636719 58.464844 268.207031 58.488281 C 267.78125 58.511719 267.359375 58.578125 266.945312 58.691406 C 263.746094 59.546875 260.652344 60.683594 257.652344 62.089844 C 254.65625 63.5 251.804688 65.160156 249.101562 67.074219 C 246.398438 68.988281 243.886719 71.128906 241.5625 73.488281 C 239.238281 75.851562 237.140625 78.398438 235.265625 81.132812 C 234.917969 81.625 234.585938 82.117188 234.265625 82.628906 C 232.398438 85.535156 230.8125 88.585938 229.507812 91.785156 C 228.207031 94.984375 227.207031 98.273438 226.507812 101.660156 C 225.8125 105.042969 225.429688 108.460938 225.363281 111.914062 C 225.296875 115.367188 225.546875 118.800781 226.109375 122.207031 C 226.289062 123.332031 226.738281 124.339844 227.453125 125.226562 C 228.039062 125.9375 228.75 126.488281 229.582031 126.878906 C 230.417969 127.273438 231.292969 127.46875 232.214844 127.46875 C 232.75 127.464844 233.28125 127.398438 233.800781 127.261719 C 236.652344 126.496094 239.429688 125.507812 242.125 124.304688 C 244.824219 123.097656 247.410156 121.6875 249.886719 120.070312 C 252.359375 118.453125 254.691406 116.652344 256.882812 114.664062 C 259.074219 112.679688 261.09375 110.53125 262.945312 108.226562 C 264.210938 106.65625 265.386719 105.023438 266.472656 103.324219 L 266.460938 103.324219 C 268.335938 100.410156 269.925781 97.347656 271.234375 94.136719 C 272.539062 90.925781 273.542969 87.625 274.238281 84.230469 C 274.933594 80.832031 275.3125 77.402344 275.371094 73.9375 C 275.433594 70.46875 275.171875 67.027344 274.597656 63.609375 Z M 259.6875 98.976562 C 259.148438 99.808594 258.597656 100.625 258.015625 101.414062 C 254.496094 106.238281 250.226562 110.265625 245.207031 113.496094 C 246.902344 108.753906 249.488281 101.753906 252.175781 94.800781 C 252.992188 92.691406 253.8125 90.59375 254.625 88.558594 C 255.125 87.304688 253.53125 86.273438 252.601562 87.261719 C 251.3125 88.613281 249.988281 89.992188 248.648438 91.375 C 243.234375 96.96875 237.632812 102.53125 233.871094 106.226562 C 234.863281 99.292969 237.25 92.882812 241.027344 86.988281 C 241.304688 86.558594 241.582031 86.136719 241.886719 85.714844 C 243.386719 83.523438 245.058594 81.46875 246.898438 79.550781 C 248.742188 77.636719 250.730469 75.886719 252.863281 74.300781 C 254.996094 72.714844 257.242188 71.320312 259.609375 70.109375 C 261.972656 68.898438 264.421875 67.894531 266.953125 67.09375 C 267.292969 69.859375 267.394531 72.632812 267.253906 75.417969 C 267.109375 78.203125 266.730469 80.953125 266.109375 83.671875 C 265.492188 86.390625 264.640625 89.035156 263.5625 91.605469 C 262.484375 94.175781 261.191406 96.632812 259.6875 98.976562 Z M 259.6875 98.976562 " fill-opacity="1" fill-rule="nonzero"/><g clip-path="url(#eb5031fa47)"><path fill="#0e4f55" d="M 114 161.003906 C 113.726562 159.8125 113.421875 158.625 113.09375 157.449219 C 112.761719 156.269531 112.40625 155.097656 112.023438 153.9375 C 111.636719 152.777344 111.226562 151.625 110.789062 150.480469 C 110.347656 149.339844 109.882812 148.207031 109.390625 147.085938 C 108.902344 145.964844 108.382812 144.855469 107.839844 143.761719 C 107.296875 142.664062 106.726562 141.582031 106.132812 140.511719 C 105.539062 139.441406 104.921875 138.386719 104.277344 137.347656 C 103.632812 136.304688 102.964844 135.28125 102.273438 134.269531 C 101.582031 133.261719 100.867188 132.269531 100.128906 131.292969 C 99.390625 130.320312 98.628906 129.359375 97.847656 128.421875 C 97.066406 127.480469 96.261719 126.558594 95.433594 125.65625 C 94.609375 124.753906 93.761719 123.875 92.894531 123.011719 C 92.027344 122.148438 91.140625 121.308594 90.230469 120.488281 C 89.324219 119.667969 88.398438 118.867188 87.453125 118.089844 C 86.511719 117.3125 85.546875 116.558594 84.570312 115.828125 C 83.589844 115.09375 82.59375 114.386719 81.582031 113.703125 C 80.566406 113.015625 79.539062 112.355469 78.496094 111.71875 C 77.453125 111.082031 76.394531 110.46875 75.320312 109.882812 C 74.25 109.296875 73.164062 108.734375 72.0625 108.199219 C 70.964844 107.664062 69.855469 107.152344 68.730469 106.667969 C 67.609375 106.183594 66.476562 105.726562 65.332031 105.296875 C 64.1875 104.867188 63.035156 104.464844 61.871094 104.085938 C 60.707031 103.710938 59.535156 103.363281 58.355469 103.039062 C 57.179688 102.71875 55.992188 102.425781 54.796875 102.160156 C 53.605469 101.894531 52.40625 101.65625 51.203125 101.449219 C 50 101.238281 48.789062 101.058594 47.578125 100.90625 C 46.363281 100.753906 45.148438 100.628906 43.929688 100.535156 C 42.710938 100.4375 41.492188 100.371094 40.269531 100.335938 C 39.046875 100.296875 37.828125 100.285156 36.605469 100.304688 C 35.382812 100.324219 34.160156 100.375 32.941406 100.449219 C 31.722656 100.527344 30.503906 100.632812 29.289062 100.765625 C 28.074219 100.902344 26.863281 101.0625 25.65625 101.253906 C 25.242188 101.320312 24.835938 101.429688 24.441406 101.578125 C 24.046875 101.726562 23.671875 101.914062 23.316406 102.144531 C 22.960938 102.371094 22.628906 102.628906 22.328125 102.925781 C 22.027344 103.21875 21.757812 103.542969 21.519531 103.890625 C 21.285156 104.242188 21.085938 104.613281 20.925781 105.003906 C 20.765625 105.394531 20.644531 105.796875 20.570312 106.210938 C 20.492188 106.625 20.457031 107.046875 20.464844 107.46875 C 20.472656 107.890625 20.523438 108.304688 20.617188 108.71875 C 21.109375 110.855469 21.691406 112.964844 22.359375 115.050781 C 23.027344 117.140625 23.78125 119.195312 24.625 121.21875 C 25.464844 123.242188 26.386719 125.226562 27.394531 127.171875 C 28.402344 129.117188 29.488281 131.019531 30.65625 132.875 C 31.824219 134.726562 33.066406 136.53125 34.382812 138.28125 C 35.703125 140.03125 37.089844 141.722656 38.550781 143.355469 C 40.007812 144.988281 41.535156 146.558594 43.125 148.0625 C 44.71875 149.566406 46.367188 151.003906 48.078125 152.367188 C 49.792969 153.734375 51.558594 155.027344 53.375 156.246094 C 55.195312 157.460938 57.0625 158.601562 58.980469 159.664062 C 60.894531 160.722656 62.851562 161.703125 64.847656 162.597656 C 66.84375 163.492188 68.875 164.304688 70.941406 165.03125 C 73.007812 165.753906 75.097656 166.390625 77.21875 166.941406 C 79.335938 167.492188 81.472656 167.949219 83.632812 168.320312 C 85.789062 168.691406 87.957031 168.96875 90.136719 169.15625 C 92.320312 169.34375 94.503906 169.4375 96.691406 169.441406 C 97.050781 169.441406 97.398438 169.441406 97.757812 169.441406 C 101.519531 169.390625 105.261719 169.070312 108.980469 168.476562 C 109.394531 168.410156 109.800781 168.300781 110.195312 168.152344 C 110.589844 168.003906 110.964844 167.816406 111.320312 167.589844 C 111.675781 167.363281 112.003906 167.101562 112.304688 166.808594 C 112.605469 166.511719 112.875 166.191406 113.109375 165.839844 C 113.347656 165.492188 113.542969 165.121094 113.703125 164.730469 C 113.863281 164.339844 113.984375 163.9375 114.058594 163.523438 C 114.136719 163.109375 114.171875 162.691406 114.160156 162.269531 C 114.152344 161.847656 114.101562 161.429688 114.007812 161.019531 Z M 98.132812 143.640625 C 89.183594 140.148438 72.441406 133.554688 58.6875 127.574219 C 57.441406 127.027344 56.367188 128.617188 57.335938 129.566406 C 68.289062 140.375 81.007812 153.863281 87.4375 160.746094 C 85.730469 160.515625 84.027344 160.21875 82.339844 159.863281 C 80.652344 159.503906 78.980469 159.085938 77.320312 158.605469 C 75.664062 158.125 74.027344 157.582031 72.40625 156.980469 C 70.789062 156.378906 69.195312 155.71875 67.628906 155 C 66.058594 154.28125 64.519531 153.503906 63.007812 152.671875 C 61.496094 151.835938 60.015625 150.949219 58.570312 150.007812 C 57.121094 149.0625 55.710938 148.070312 54.339844 147.023438 C 52.964844 145.976562 51.632812 144.878906 50.339844 143.734375 C 49.046875 142.589844 47.800781 141.398438 46.59375 140.160156 C 45.390625 138.921875 44.234375 137.640625 43.121094 136.316406 C 42.011719 134.996094 40.953125 133.632812 39.941406 132.230469 C 38.933594 130.828125 37.976562 129.390625 37.070312 127.921875 C 36.167969 126.449219 35.320312 124.945312 34.527344 123.410156 C 33.734375 121.875 32.996094 120.3125 32.320312 118.722656 C 31.640625 117.132812 31.023438 115.519531 30.460938 113.886719 C 29.902344 112.25 29.40625 110.597656 28.96875 108.925781 C 30.65625 108.710938 32.351562 108.554688 34.050781 108.464844 C 35.753906 108.371094 37.453125 108.339844 39.15625 108.371094 C 40.859375 108.40625 42.558594 108.5 44.257812 108.65625 C 45.953125 108.8125 47.640625 109.027344 49.320312 109.308594 C 51 109.585938 52.667969 109.925781 54.324219 110.328125 C 55.980469 110.730469 57.617188 111.191406 59.238281 111.710938 C 60.863281 112.230469 62.460938 112.8125 64.042969 113.449219 C 65.621094 114.085938 67.175781 114.78125 68.707031 115.53125 C 70.234375 116.28125 71.734375 117.089844 73.203125 117.949219 C 74.675781 118.808594 76.113281 119.722656 77.515625 120.6875 C 78.921875 121.652344 80.289062 122.667969 81.617188 123.734375 C 82.949219 124.800781 84.238281 125.910156 85.488281 127.070312 C 86.734375 128.230469 87.941406 129.433594 89.101562 130.683594 C 90.265625 131.929688 91.378906 133.21875 92.445312 134.546875 C 93.515625 135.875 94.53125 137.242188 95.5 138.644531 C 96.46875 140.046875 97.386719 141.484375 98.25 142.953125 C 98.445312 143.269531 98.625 143.582031 98.8125 143.898438 C 98.589844 143.816406 98.367188 143.726562 98.132812 143.640625 Z M 98.132812 143.640625 " fill-opacity="1" fill-rule="nonzero"/></g><path fill="#0e4f55" d="M 140.53125 82.628906 C 140.210938 82.117188 139.878906 81.625 139.53125 81.132812 C 137.65625 78.398438 135.558594 75.851562 133.234375 73.488281 C 130.910156 71.128906 128.398438 68.992188 125.695312 67.074219 C 122.992188 65.160156 120.140625 63.5 117.144531 62.089844 C 114.148438 60.683594 111.050781 59.550781 107.851562 58.691406 C 107.4375 58.578125 107.019531 58.511719 106.589844 58.488281 C 106.164062 58.464844 105.738281 58.484375 105.316406 58.550781 C 104.890625 58.617188 104.480469 58.726562 104.078125 58.878906 C 103.679688 59.027344 103.296875 59.222656 102.9375 59.453125 C 102.578125 59.683594 102.246094 59.949219 101.941406 60.253906 C 101.636719 60.554688 101.367188 60.882812 101.128906 61.242188 C 100.894531 61.597656 100.699219 61.976562 100.542969 62.378906 C 100.382812 62.777344 100.269531 63.1875 100.199219 63.609375 C 99.621094 67.027344 99.363281 70.472656 99.425781 73.9375 C 99.484375 77.40625 99.863281 80.835938 100.558594 84.234375 C 101.253906 87.628906 102.253906 90.933594 103.5625 94.144531 C 104.871094 97.355469 106.460938 100.417969 108.335938 103.332031 C 109.417969 105.023438 110.589844 106.652344 111.851562 108.214844 C 113.703125 110.527344 115.722656 112.675781 117.914062 114.664062 C 120.101562 116.652344 122.4375 118.453125 124.910156 120.070312 C 127.386719 121.6875 129.976562 123.101562 132.675781 124.304688 C 135.375 125.511719 138.152344 126.5 141.007812 127.265625 C 141.53125 127.398438 142.0625 127.46875 142.601562 127.46875 C 143.324219 127.46875 144.03125 127.34375 144.710938 127.09375 C 145.390625 126.84375 146.011719 126.484375 146.566406 126.015625 C 147.117188 125.546875 147.574219 124.996094 147.9375 124.363281 C 148.296875 123.734375 148.535156 123.058594 148.65625 122.34375 C 149.238281 118.925781 149.496094 115.484375 149.4375 112.019531 C 149.378906 108.550781 149 105.121094 148.304688 101.726562 C 147.613281 98.328125 146.609375 95.027344 145.304688 91.816406 C 143.996094 88.605469 142.40625 85.542969 140.53125 82.628906 Z M 126.136719 91.375 C 124.800781 89.996094 123.476562 88.617188 122.199219 87.261719 C 121.257812 86.277344 119.664062 87.308594 120.175781 88.5625 C 120.988281 90.597656 121.8125 92.695312 122.625 94.785156 C 125.316406 101.75 127.882812 108.742188 129.605469 113.488281 C 124.582031 110.261719 120.308594 106.238281 116.785156 101.414062 C 116.203125 100.625 115.65625 99.808594 115.113281 98.976562 C 113.609375 96.628906 112.316406 94.171875 111.238281 91.601562 C 110.15625 89.03125 109.308594 86.386719 108.6875 83.671875 C 108.066406 80.953125 107.6875 78.199219 107.542969 75.417969 C 107.402344 72.632812 107.5 69.855469 107.835938 67.089844 C 110.367188 67.890625 112.816406 68.898438 115.179688 70.109375 C 117.542969 71.316406 119.789062 72.714844 121.921875 74.296875 C 124.054688 75.882812 126.042969 77.628906 127.886719 79.542969 C 129.726562 81.457031 131.398438 83.511719 132.902344 85.703125 C 133.199219 86.125 133.484375 86.554688 133.761719 86.984375 C 137.542969 92.878906 139.929688 99.289062 140.917969 106.222656 C 137.160156 102.53125 131.558594 96.96875 126.136719 91.375 Z M 126.136719 91.375 " fill-opacity="1" fill-rule="nonzero"/><path fill="#0e4f55" d="M 201.1875 156.328125 L 173.613281 156.328125 C 173.269531 156.328125 172.929688 156.359375 172.59375 156.429688 C 172.257812 156.496094 171.929688 156.597656 171.613281 156.726562 C 171.292969 156.859375 170.992188 157.023438 170.707031 157.214844 C 170.421875 157.40625 170.15625 157.621094 169.914062 157.867188 C 169.671875 158.109375 169.453125 158.375 169.265625 158.660156 C 169.074219 158.945312 168.910156 159.246094 168.78125 159.566406 C 168.648438 159.882812 168.550781 160.210938 168.480469 160.550781 C 168.414062 160.886719 168.382812 161.226562 168.378906 161.570312 L 168.378906 186.53125 C 168.382812 186.875 168.414062 187.21875 168.480469 187.554688 C 168.550781 187.894531 168.648438 188.222656 168.78125 188.539062 C 168.910156 188.855469 169.074219 189.160156 169.265625 189.445312 C 169.457031 189.730469 169.671875 189.996094 169.914062 190.238281 C 170.160156 190.484375 170.421875 190.699219 170.710938 190.890625 C 170.996094 191.082031 171.296875 191.246094 171.613281 191.375 C 171.929688 191.507812 172.257812 191.609375 172.597656 191.675781 C 172.933594 191.742188 173.273438 191.777344 173.617188 191.777344 L 201.191406 191.777344 C 201.535156 191.777344 201.875 191.742188 202.214844 191.675781 C 202.550781 191.609375 202.878906 191.507812 203.195312 191.375 C 203.511719 191.246094 203.816406 191.082031 204.101562 190.890625 C 204.386719 190.699219 204.652344 190.484375 204.894531 190.238281 C 205.136719 189.996094 205.355469 189.730469 205.546875 189.445312 C 205.738281 189.160156 205.898438 188.855469 206.03125 188.539062 C 206.160156 188.222656 206.261719 187.894531 206.328125 187.554688 C 206.394531 187.21875 206.429688 186.875 206.429688 186.53125 L 206.429688 161.570312 C 206.429688 161.226562 206.394531 160.886719 206.328125 160.546875 C 206.261719 160.210938 206.160156 159.882812 206.027344 159.5625 C 205.898438 159.246094 205.734375 158.945312 205.542969 158.65625 C 205.355469 158.371094 205.136719 158.105469 204.894531 157.863281 C 204.648438 157.617188 204.386719 157.402344 204.097656 157.210938 C 203.8125 157.019531 203.511719 156.859375 203.191406 156.726562 C 202.875 156.59375 202.546875 156.496094 202.210938 156.425781 C 201.875 156.359375 201.53125 156.328125 201.1875 156.328125 Z M 175.535156 163.492188 L 183.820312 163.492188 L 183.820312 184.601562 L 175.535156 184.601562 Z M 199.261719 184.601562 L 190.976562 184.601562 L 190.976562 163.496094 L 199.261719 163.496094 Z M 199.261719 184.601562 " fill-opacity="1" fill-rule="nonzero"/></svg>